<svg width="192" height="62" viewBox="0 0 192 62" fill="none" xmlns="http://www.w3.org/2000/svg">
<rect x="1" y="0.5" width="190" height="61" rx="3.5" fill="#111111"/>
<path d="M49.2805 29.5238C49.244 25.5984 52.596 23.6886 52.7493 23.5997C50.8509 20.9166 47.9085 20.55 46.8745 20.5208C44.4033 20.2687 42.0061 21.9543 40.7472 21.9543C39.4632 21.9543 37.5247 20.5451 35.4353 20.5865C32.7467 20.6267 30.2315 22.1358 28.852 24.4791C26.005 29.257 28.1283 36.2785 30.8559 40.1405C32.2203 42.032 33.8146 44.1439 35.9014 44.0696C37.943 43.988 38.7056 42.8078 41.1694 42.8078C43.6105 42.8078 44.3266 44.0696 46.4549 44.0221C48.646 43.988 50.0255 42.1221 51.3422 40.2136C52.9189 38.0457 53.5521 35.9106 53.5772 35.801C53.5257 35.784 49.3219 34.2287 49.2805 29.5238Z" fill="white"/>
<path d="M45.2601 17.9802C46.3582 16.6489 47.1095 14.8379 46.9009 13C45.3116 13.0682 43.324 14.0657 42.1795 15.3677C41.1669 16.515 40.2623 18.3955 40.496 20.1639C42.2813 20.293 44.1143 19.2907 45.2601 17.9802Z" fill="white"/>
<path d="M73.0525 17.6185C73.0525 19.052 72.609 20.1311 71.7233 20.8557C70.9029 21.5244 69.7369 21.8593 68.2268 21.8593C67.478 21.8593 66.8372 21.8277 66.3008 21.7643V13.9318C67.0006 13.8221 67.7544 13.7661 68.5685 13.7661C70.0071 13.7661 71.0913 14.0694 71.8225 14.6759C72.6417 15.3616 73.0525 16.3421 73.0525 17.6185ZM71.6642 17.6538C71.6642 16.7245 71.4104 16.012 70.9029 15.5151C70.3953 15.0194 69.654 14.7709 68.6778 14.7709C68.2632 14.7709 67.9102 14.7977 67.6175 14.8537V20.8082C67.7795 20.8326 68.076 20.8436 68.507 20.8436C69.5146 20.8436 70.2923 20.572 70.84 20.0288C71.3878 19.4856 71.6642 18.6939 71.6642 17.6538Z" fill="white"/>
<path d="M80.4139 18.8703C80.4139 19.7533 80.1539 20.4767 79.6337 21.0443C79.0885 21.6277 78.366 21.9188 77.464 21.9188C76.5946 21.9188 75.9023 21.6399 75.3859 21.0796C74.8708 20.5206 74.6133 19.8154 74.6133 18.9653C74.6133 18.0762 74.8784 17.3466 75.4111 16.7803C75.9438 16.214 76.6599 15.9302 77.562 15.9302C78.4314 15.9302 79.1299 16.2091 79.6588 16.7681C80.1614 17.3113 80.4139 18.0129 80.4139 18.8703ZM79.0483 18.9117C79.0483 18.3819 78.9302 17.9276 78.6952 17.5488C78.4188 17.0909 78.0256 16.8619 77.5142 16.8619C76.9853 16.8619 76.5833 17.0909 76.3069 17.5488C76.0707 17.9276 75.9538 18.3892 75.9538 18.9348C75.9538 19.4646 76.0719 19.9189 76.3069 20.2977C76.5921 20.7556 76.9891 20.9846 77.5017 20.9846C78.0042 20.9846 78.3987 20.752 78.6827 20.2855C78.9264 19.8994 79.0483 19.4415 79.0483 18.9117Z" fill="white"/>
<path d="M90.2841 16.0469L88.431 21.7882H87.2249L86.4572 19.2951C86.2625 18.6728 86.1042 18.054 85.981 17.4402H85.9572C85.8428 18.0711 85.6845 18.6886 85.481 19.2951L84.6656 21.7882H83.4457L81.7031 16.0469H83.0562L83.7259 18.7763C83.8879 19.4218 84.0211 20.0368 84.1279 20.619H84.1518C84.2498 20.1391 84.4118 19.5277 84.6405 18.7885L85.481 16.0481H86.554L87.3593 18.73C87.554 19.384 87.7123 20.0137 87.8342 20.6202H87.8706C87.9598 20.0295 88.0943 19.3999 88.2727 18.73L88.9913 16.0481H90.2841V16.0469Z" fill="white"/>
<path d="M97.1093 21.7887H95.7926V18.5003C95.7926 17.4869 95.3956 16.9803 94.599 16.9803C94.2083 16.9803 93.893 17.1191 93.648 17.398C93.4055 17.6769 93.2824 18.0058 93.2824 18.3821V21.7875H91.9657V17.6879C91.9657 17.1837 91.9494 16.6368 91.918 16.0449H93.0751L93.1366 16.9425H93.1731C93.3264 16.6636 93.555 16.4334 93.8553 16.2495C94.2121 16.0352 94.6116 15.9268 95.0488 15.9268C95.6016 15.9268 96.0614 16.0997 96.427 16.4468C96.8819 16.8719 97.1093 17.5064 97.1093 18.3492V21.7887Z" fill="white"/>
<path d="M100.741 21.7884H99.4258V13.4126H100.741V21.7884Z" fill="white"/>
<path d="M108.492 18.8703C108.492 19.7533 108.232 20.4767 107.712 21.0443C107.167 21.6277 106.443 21.9188 105.542 21.9188C104.671 21.9188 103.979 21.6399 103.464 21.0796C102.949 20.5206 102.691 19.8154 102.691 18.9653C102.691 18.0762 102.957 17.3466 103.489 16.7803C104.022 16.214 104.738 15.9302 105.639 15.9302C106.51 15.9302 107.207 16.2091 107.737 16.7681C108.24 17.3113 108.492 18.0129 108.492 18.8703ZM107.125 18.9117C107.125 18.3819 107.007 17.9276 106.772 17.5488C106.497 17.0909 106.102 16.8619 105.592 16.8619C105.062 16.8619 104.66 17.0909 104.385 17.5488C104.149 17.9276 104.032 18.3892 104.032 18.9348C104.032 19.4646 104.15 19.9189 104.385 20.2977C104.67 20.7556 105.067 20.9846 105.58 20.9846C106.082 20.9846 106.476 20.752 106.76 20.2855C107.005 19.8994 107.125 19.4415 107.125 18.9117Z" fill="white"/>
<path d="M114.864 21.7885H113.682L113.584 21.1271H113.547C113.143 21.6545 112.566 21.9188 111.817 21.9188C111.258 21.9188 110.806 21.7446 110.466 21.3987C110.156 21.0845 110.002 20.6935 110.002 20.2295C110.002 19.528 110.303 18.9933 110.91 18.623C111.516 18.2528 112.368 18.0713 113.464 18.0798V17.9727C113.464 17.2163 113.055 16.8388 112.235 16.8388C111.65 16.8388 111.135 16.9813 110.69 17.2638L110.423 16.4259C110.973 16.0958 111.653 15.9302 112.454 15.9302C114.002 15.9302 114.779 16.7218 114.779 18.3052V20.4195C114.779 20.9931 114.808 21.4499 114.864 21.7885ZM113.497 19.8154V18.93C112.045 18.9056 111.319 19.2917 111.319 20.087C111.319 20.3866 111.402 20.6107 111.571 20.7605C111.741 20.9103 111.957 20.9846 112.214 20.9846C112.503 20.9846 112.773 20.8957 113.02 20.7191C113.267 20.5413 113.419 20.316 113.476 20.0395C113.49 19.9774 113.497 19.9019 113.497 19.8154Z" fill="white"/>
<path d="M122.345 21.7884H121.177L121.115 20.8664H121.079C120.705 21.5679 120.07 21.9187 119.176 21.9187C118.463 21.9187 117.869 21.6471 117.397 21.1039C116.926 20.5607 116.691 19.8555 116.691 18.9895C116.691 18.0603 116.946 17.3076 117.459 16.7327C117.955 16.1968 118.563 15.9289 119.287 15.9289C120.082 15.9289 120.639 16.1883 120.956 16.7083H120.981V13.4126H122.299V20.2416C122.299 20.8006 122.314 21.3158 122.345 21.7884ZM120.981 19.3671V18.4098C120.981 18.2442 120.968 18.1102 120.944 18.0079C120.87 17.701 120.711 17.4428 120.468 17.2345C120.223 17.0262 119.928 16.9215 119.587 16.9215C119.096 16.9215 118.712 17.1103 118.429 17.489C118.149 17.8678 118.007 18.3513 118.007 18.942C118.007 19.5096 118.141 19.97 118.411 20.3244C118.697 20.702 119.081 20.8907 119.562 20.8907C119.994 20.8907 120.34 20.7336 120.602 20.4182C120.856 20.1271 120.981 19.7763 120.981 19.3671Z" fill="white"/>
<path d="M133.607 18.8703C133.607 19.7533 133.347 20.4767 132.827 21.0443C132.282 21.6277 131.561 21.9188 130.657 21.9188C129.789 21.9188 129.097 21.6399 128.579 21.0796C128.064 20.5206 127.807 19.8154 127.807 18.9653C127.807 18.0762 128.072 17.3466 128.604 16.7803C129.137 16.214 129.853 15.9302 130.757 15.9302C131.625 15.9302 132.325 16.2091 132.852 16.7681C133.355 17.3113 133.607 18.0129 133.607 18.8703ZM132.243 18.9117C132.243 18.3819 132.125 17.9276 131.89 17.5488C131.612 17.0909 131.22 16.8619 130.708 16.8619C130.18 16.8619 129.778 17.0909 129.5 17.5488C129.264 17.9276 129.147 18.3892 129.147 18.9348C129.147 19.4646 129.265 19.9189 129.5 20.2977C129.785 20.7556 130.182 20.9846 130.695 20.9846C131.198 20.9846 131.593 20.752 131.877 20.2855C132.12 19.8994 132.243 19.4415 132.243 18.9117Z" fill="white"/>
<path d="M140.686 21.7887H139.371V18.5003C139.371 17.4869 138.974 16.9803 138.176 16.9803C137.785 16.9803 137.47 17.1191 137.226 17.398C136.982 17.6769 136.861 18.0058 136.861 18.3821V21.7875H135.543V17.6879C135.543 17.1837 135.528 16.6368 135.496 16.0449H136.652L136.714 16.9425H136.75C136.904 16.6636 137.133 16.4334 137.432 16.2495C137.79 16.0352 138.188 15.9268 138.627 15.9268C139.179 15.9268 139.638 16.0997 140.004 16.4468C140.46 16.8719 140.686 17.5064 140.686 18.3492V21.7887Z" fill="white"/>
<path d="M149.548 17.0031H148.099V19.7922C148.099 20.501 148.356 20.8555 148.866 20.8555C149.102 20.8555 149.298 20.836 149.453 20.7958L149.487 21.7641C149.227 21.8591 148.885 21.9065 148.464 21.9065C147.944 21.9065 147.539 21.7531 147.247 21.4462C146.953 21.1392 146.807 20.6228 146.807 19.8982V17.0031H145.941V16.047H146.807V14.9947L148.097 14.6172V16.0458H149.547V17.0031H149.548Z" fill="white"/>
<path d="M156.519 21.7884H155.201V18.5243C155.201 17.4951 154.804 16.9799 154.008 16.9799C153.398 16.9799 152.981 17.2783 152.752 17.8751C152.713 18.0006 152.69 18.154 152.69 18.3343V21.7871H151.375V13.4126H152.69V16.8728H152.716C153.13 16.2431 153.724 15.9289 154.495 15.9289C155.04 15.9289 155.491 16.1018 155.849 16.4489C156.295 16.8813 156.519 17.5244 156.519 18.3745V21.7884Z" fill="white"/>
<path d="M163.709 18.6464C163.709 18.8754 163.691 19.0678 163.66 19.2249H159.711C159.729 19.7925 159.917 20.2248 160.283 20.5245C160.617 20.7924 161.048 20.9264 161.575 20.9264C162.16 20.9264 162.692 20.8363 163.172 20.6548L163.378 21.5414C162.817 21.7777 162.156 21.8959 161.391 21.8959C160.474 21.8959 159.751 21.634 159.229 21.1103C158.703 20.5866 158.443 19.8838 158.443 19.002C158.443 18.1361 158.686 17.4151 159.175 16.8402C159.685 16.2264 160.374 15.9194 161.245 15.9194C162.097 15.9194 162.744 16.2264 163.181 16.8402C163.534 17.3274 163.709 17.9302 163.709 18.6464ZM162.452 18.3163C162.462 17.9376 162.376 17.6112 162.197 17.3359C161.969 16.9815 161.621 16.8037 161.15 16.8037C160.72 16.8037 160.369 16.9766 160.102 17.3237C159.883 17.6002 159.754 17.9302 159.711 18.3163H162.452Z" fill="white"/>
<path d="M78.8262 43.7977H75.973L74.4101 39.0368H68.9776L67.4888 43.7977H64.7109L70.0932 27.5894H73.4175L78.8262 43.7977ZM73.9389 37.0393L72.5255 32.807C72.376 32.3746 72.0959 31.3564 71.6825 29.7536H71.6323C71.4677 30.443 71.2026 31.4612 70.8382 32.807L69.4499 37.0393H73.9389Z" fill="white"/>
<path d="M92.6667 37.8105C92.6667 39.7982 92.1127 41.3693 91.0045 42.5227C90.012 43.5494 88.7795 44.0622 87.3083 44.0622C85.7203 44.0622 84.5795 43.5092 83.8847 42.4033H83.8345V48.56H81.1559V35.958C81.1559 34.7084 81.122 33.4259 81.0566 32.1105H83.4123L83.5618 33.963H83.6121C84.5054 32.5673 85.861 31.8706 87.6802 31.8706C89.1024 31.8706 90.2897 32.415 91.2395 33.5051C92.1918 34.5964 92.6667 36.0311 92.6667 37.8105ZM89.9379 37.9055C89.9379 36.7679 89.6741 35.8301 89.1439 35.0921C88.5647 34.3223 87.787 33.9374 86.812 33.9374C86.1512 33.9374 85.5507 34.1518 85.0142 34.5744C84.4765 35.0007 84.1247 35.5573 83.9601 36.2467C83.8772 36.5682 83.8357 36.8313 83.8357 37.0383V38.987C83.8357 39.8371 84.1046 40.5545 84.6423 41.1403C85.18 41.7262 85.8786 42.0185 86.7379 42.0185C87.7468 42.0185 88.532 41.6409 89.0936 40.8882C89.6565 40.1343 89.9379 39.1405 89.9379 37.9055Z" fill="white"/>
<path d="M106.535 37.8105C106.535 39.7982 105.981 41.3693 104.871 42.5227C103.88 43.5494 102.647 44.0622 101.176 44.0622C99.5882 44.0622 98.4474 43.5092 97.7539 42.4033H97.7036V48.56H95.025V35.958C95.025 34.7084 94.9911 33.4259 94.9258 32.1105H97.2815L97.431 33.963H97.4812C98.3732 32.5673 99.7289 31.8706 101.549 31.8706C102.97 31.8706 104.158 32.415 105.11 33.5051C106.058 34.5964 106.535 36.0311 106.535 37.8105ZM103.806 37.9055C103.806 36.7679 103.541 35.8301 103.01 35.0921C102.431 34.3223 101.656 33.9374 100.68 33.9374C100.018 33.9374 99.4185 34.1518 98.8808 34.5744C98.3431 35.0007 97.9926 35.5573 97.828 36.2467C97.7463 36.5682 97.7036 36.8313 97.7036 37.0383V38.987C97.7036 39.8371 97.9725 40.5545 98.5077 41.1403C99.0454 41.7249 99.7439 42.0185 100.606 42.0185C101.615 42.0185 102.4 41.6409 102.962 40.8882C103.524 40.1343 103.806 39.1405 103.806 37.9055Z" fill="white"/>
<path d="M122.039 39.2525C122.039 40.6312 121.545 41.753 120.554 42.6189C119.464 43.5653 117.948 44.0378 115.999 44.0378C114.2 44.0378 112.758 43.7017 111.666 43.0281L112.287 40.8639C113.463 41.5532 114.753 41.8991 116.159 41.8991C117.168 41.8991 117.953 41.6774 118.517 41.2366C119.079 40.7957 119.359 40.2037 119.359 39.4657C119.359 38.808 119.128 38.2538 118.664 37.8044C118.203 37.355 117.433 36.9372 116.357 36.5511C113.43 35.4928 111.968 33.9423 111.968 31.9035C111.968 30.5711 112.48 29.4786 113.507 28.6285C114.529 27.7771 115.894 27.3521 117.6 27.3521C119.121 27.3521 120.385 27.609 121.394 28.1218L120.724 30.2386C119.782 29.7416 118.717 29.4932 117.524 29.4932C116.582 29.4932 115.846 29.7185 115.318 30.1667C114.872 30.5674 114.649 31.0558 114.649 31.6343C114.649 32.275 114.904 32.8048 115.416 33.2213C115.862 33.6062 116.673 34.0227 117.849 34.4721C119.287 35.0336 120.344 35.6901 121.023 36.4427C121.701 37.193 122.039 38.132 122.039 39.2525Z" fill="white"/>
<path d="M130.893 34.059H127.941V39.7334C127.941 41.1767 128.461 41.8977 129.503 41.8977C129.982 41.8977 130.379 41.8575 130.693 41.7771L130.767 43.749C130.24 43.9402 129.545 44.0364 128.684 44.0364C127.626 44.0364 126.8 43.7234 126.203 43.0986C125.609 42.4726 125.31 41.4227 125.31 39.9478V34.0566H123.551V32.1079H125.31V29.968L127.941 29.1982V32.1079H130.893V34.059Z" fill="white"/>
<path d="M144.215 37.8582C144.215 39.6547 143.685 41.1296 142.627 42.283C141.517 43.4705 140.045 44.0624 138.209 44.0624C136.44 44.0624 135.032 43.4936 133.982 42.3561C132.931 41.2185 132.406 39.7826 132.406 38.0519C132.406 36.2408 132.946 34.7574 134.031 33.604C135.112 32.4494 136.572 31.8721 138.408 31.8721C140.177 31.8721 141.6 32.4408 142.675 33.5796C143.702 34.6843 144.215 36.1105 144.215 37.8582ZM141.436 37.9423C141.436 36.8644 141.198 35.94 140.717 35.169C140.156 34.2361 139.353 33.7708 138.312 33.7708C137.236 33.7708 136.418 34.2373 135.856 35.169C135.375 35.9412 135.138 36.8802 135.138 37.991C135.138 39.0689 135.375 39.9933 135.856 40.763C136.435 41.696 137.245 42.1612 138.289 42.1612C139.311 42.1612 140.114 41.6862 140.693 40.7387C141.187 39.9531 141.436 39.0189 141.436 37.9423Z" fill="white"/>
<path d="M152.921 34.3942C152.656 34.3467 152.373 34.3223 152.077 34.3223C151.134 34.3223 150.406 34.667 149.893 35.3576C149.447 35.9665 149.223 36.7363 149.223 37.6656V43.7979H146.546L146.571 35.7911C146.571 34.4441 146.537 33.2176 146.471 32.1118H148.804L148.902 34.3479H148.976C149.259 33.5794 149.705 32.9607 150.315 32.4966C150.912 32.0789 151.556 31.8706 152.251 31.8706C152.499 31.8706 152.722 31.8877 152.921 31.9181V34.3942Z" fill="white"/>
<path d="M164.902 37.4012C164.902 37.8665 164.87 38.2586 164.804 38.579H156.768C156.799 39.7336 157.188 40.6166 157.934 41.2255C158.611 41.77 159.487 42.0428 160.562 42.0428C161.752 42.0428 162.838 41.8589 163.814 41.4898L164.233 43.2924C163.093 43.7747 161.746 44.0146 160.192 44.0146C158.322 44.0146 156.855 43.4812 155.787 42.4155C154.721 41.3498 154.188 39.9187 154.188 38.1234C154.188 36.3611 154.684 34.8935 155.678 33.723C156.718 32.4734 158.124 31.8486 159.893 31.8486C161.63 31.8486 162.946 32.4734 163.839 33.723C164.546 34.7157 164.902 35.9433 164.902 37.4012ZM162.348 36.7277C162.365 35.958 162.191 35.293 161.827 34.7315C161.364 34.0093 160.651 33.6487 159.693 33.6487C158.817 33.6487 158.105 34.0007 157.561 34.7071C157.115 35.2686 156.85 35.9421 156.768 36.7265H162.348V36.7277Z" fill="white"/>
<rect x="1" y="0.5" width="190" height="61" rx="3.5" stroke="#585858"/>
</svg>
