<svg width="1728" height="660" viewBox="0 0 1728 660" fill="none" xmlns="http://www.w3.org/2000/svg">
<g clip-path="url(#clip0_3729_6729)">
<path d="M83.3026 -226.979V-15.0473C83.3026 -11.0635 81.7206 -7.24294 78.9045 -4.42598C76.0885 -1.60902 72.2691 -0.0264596 68.2865 -0.0264596H-54.0103C-57.9858 -0.0264596 -61.7985 1.55331 -64.6096 4.36531C-67.4207 7.17731 -69 10.9912 -69 14.968V227.006C-69 230.982 -67.4207 234.796 -64.6096 237.608C-61.7985 240.42 -57.9858 242 -54.0103 242H171.707C175.683 242 179.496 240.42 182.307 237.608C185.118 234.796 186.697 230.982 186.697 227.006V15.0473C186.697 13.076 187.086 11.124 187.841 9.30306C188.596 7.48213 189.702 5.82799 191.097 4.43528C192.492 3.04257 194.147 1.93865 195.969 1.18667C197.791 0.434684 199.742 0.049396 201.713 0.0528728H324.01C325.987 0.052922 327.945 -0.338389 329.771 -1.09854C331.596 -1.85868 333.254 -2.97264 334.647 -4.37622C336.04 -5.77981 337.142 -7.44529 337.889 -9.27673C338.636 -11.1082 339.014 -13.0694 339 -15.0473V-226.979C339.003 -228.95 338.618 -230.903 337.866 -232.725C337.115 -234.548 336.011 -236.204 334.619 -237.599C333.226 -238.994 331.573 -240.101 329.752 -240.856C327.932 -241.611 325.981 -242 324.01 -242H98.2923C96.3216 -242 94.3702 -241.611 92.5499 -240.856C90.7295 -240.101 89.0759 -238.994 87.6837 -237.599C86.2914 -236.204 85.1878 -234.548 84.436 -232.725C83.6843 -230.903 83.2992 -228.95 83.3026 -226.979Z" fill="url(#paint0_linear_3729_6729)"/>
<path d="M83.3026 327.021V538.953C83.3026 542.936 81.7206 546.757 78.9045 549.574C76.0885 552.391 72.2691 553.974 68.2865 553.974H-54.0103C-57.9858 553.974 -61.7985 555.553 -64.6096 558.365C-67.4207 561.177 -69 564.991 -69 568.968V781.006C-69 784.982 -67.4207 788.796 -64.6096 791.608C-61.7985 794.42 -57.9858 796 -54.0103 796H171.707C175.683 796 179.496 794.42 182.307 791.608C185.118 788.796 186.697 784.982 186.697 781.006V569.047C186.697 567.076 187.086 565.124 187.841 563.303C188.596 561.482 189.702 559.828 191.097 558.435C192.492 557.043 194.147 555.939 195.969 555.187C197.791 554.435 199.742 554.049 201.713 554.053H324.01C325.987 554.053 327.945 553.662 329.771 552.901C331.596 552.141 333.254 551.027 334.647 549.624C336.04 548.22 337.142 546.555 337.889 544.723C338.636 542.892 339.014 540.931 339 538.953V327.021C339.003 325.05 338.618 323.097 337.866 321.275C337.115 319.452 336.011 317.796 334.619 316.401C333.226 315.006 331.573 313.899 329.752 313.144C327.932 312.389 325.981 312 324.01 312H98.2923C96.3216 312 94.3702 312.389 92.5499 313.144C90.7295 313.899 89.0759 315.006 87.6837 316.401C86.2914 317.796 85.1878 319.452 84.436 321.275C83.6843 323.097 83.2992 325.05 83.3026 327.021Z" fill="url(#paint1_linear_3729_6729)"/>
<path d="M1566.3 -62.9791V148.953C1566.3 152.936 1564.72 156.757 1561.9 159.574C1559.09 162.391 1555.27 163.974 1551.29 163.974H1428.99C1425.01 163.974 1421.2 165.553 1418.39 168.365C1415.58 171.177 1414 174.991 1414 178.968V391.006C1414 394.982 1415.58 398.796 1418.39 401.608C1421.2 404.42 1425.01 406 1428.99 406H1654.71C1658.68 406 1662.5 404.42 1665.31 401.608C1668.12 398.796 1669.7 394.982 1669.7 391.006V179.047C1669.7 177.076 1670.09 175.124 1670.84 173.303C1671.6 171.482 1672.7 169.828 1674.1 168.435C1675.49 167.043 1677.15 165.939 1678.97 165.187C1680.79 164.435 1682.74 164.049 1684.71 164.053H1807.01C1808.99 164.053 1810.95 163.662 1812.77 162.901C1814.6 162.141 1816.25 161.027 1817.65 159.624C1819.04 158.22 1820.14 156.555 1820.89 154.723C1821.64 152.892 1822.01 150.931 1822 148.953V-62.9791C1822 -64.9504 1821.62 -66.9031 1820.87 -68.7254C1820.11 -70.5476 1819.01 -72.2037 1817.62 -73.5989C1816.23 -74.9941 1814.57 -76.1009 1812.75 -76.8561C1810.93 -77.6113 1808.98 -78 1807.01 -78H1581.29C1579.32 -78 1577.37 -77.6113 1575.55 -76.8561C1573.73 -76.1009 1572.08 -74.9941 1570.68 -73.5989C1569.29 -72.2037 1568.19 -70.5476 1567.44 -68.7254C1566.68 -66.9031 1566.3 -64.9504 1566.3 -62.9791Z" fill="url(#paint2_linear_3729_6729)"/>
<path d="M1566.3 491.021V702.953C1566.3 706.936 1564.72 710.757 1561.9 713.574C1559.09 716.391 1555.27 717.974 1551.29 717.974H1428.99C1425.01 717.974 1421.2 719.553 1418.39 722.365C1415.58 725.177 1414 728.991 1414 732.968V945.006C1414 948.982 1415.58 952.796 1418.39 955.608C1421.2 958.42 1425.01 960 1428.99 960H1654.71C1658.68 960 1662.5 958.42 1665.31 955.608C1668.12 952.796 1669.7 948.982 1669.7 945.006V733.047C1669.7 731.076 1670.09 729.124 1670.84 727.303C1671.6 725.482 1672.7 723.828 1674.1 722.435C1675.49 721.043 1677.15 719.939 1678.97 719.187C1680.79 718.435 1682.74 718.049 1684.71 718.053H1807.01C1808.99 718.053 1810.95 717.662 1812.77 716.901C1814.6 716.141 1816.25 715.027 1817.65 713.624C1819.04 712.22 1820.14 710.555 1820.89 708.723C1821.64 706.892 1822.01 704.931 1822 702.953V491.021C1822 489.05 1821.62 487.097 1820.87 485.275C1820.11 483.452 1819.01 481.796 1817.62 480.401C1816.23 479.006 1814.57 477.899 1812.75 477.144C1810.93 476.389 1808.98 476 1807.01 476H1581.29C1579.32 476 1577.37 476.389 1575.55 477.144C1573.73 477.899 1572.08 479.006 1570.68 480.401C1569.29 481.796 1568.19 483.452 1567.44 485.275C1566.68 487.097 1566.3 489.05 1566.3 491.021Z" fill="url(#paint3_linear_3729_6729)"/>
</g>
<defs>
<linearGradient id="paint0_linear_3729_6729" x1="135" y1="-242" x2="135" y2="242" gradientUnits="userSpaceOnUse">
<stop stop-color="#E0F6B2"/>
<stop offset="1" stop-color="#E0F6B2" stop-opacity="0"/>
</linearGradient>
<linearGradient id="paint1_linear_3729_6729" x1="135" y1="312" x2="135" y2="796" gradientUnits="userSpaceOnUse">
<stop stop-color="#E0F6B2"/>
<stop offset="1" stop-color="#E0F6B2" stop-opacity="0"/>
</linearGradient>
<linearGradient id="paint2_linear_3729_6729" x1="1618" y1="-78" x2="1618" y2="406" gradientUnits="userSpaceOnUse">
<stop stop-color="#E0F6B2"/>
<stop offset="1" stop-color="#E0F6B2" stop-opacity="0"/>
</linearGradient>
<linearGradient id="paint3_linear_3729_6729" x1="1618" y1="476" x2="1618" y2="960" gradientUnits="userSpaceOnUse">
<stop stop-color="#E0F6B2"/>
<stop offset="1" stop-color="#E0F6B2" stop-opacity="0"/>
</linearGradient>
<clipPath id="clip0_3729_6729">
<rect width="1728" height="660" fill="white"/>
</clipPath>
</defs>
</svg>
