<svg width="527" height="677" viewBox="0 0 527 677" fill="none" xmlns="http://www.w3.org/2000/svg">
<g clip-path="url(#clip0_659_10518)">
<path d="M492.266 430.691V305.692C492.769 303.612 492.589 301.425 491.754 299.455C490.918 297.485 489.47 295.837 487.624 294.754L368.652 224.082C365.73 222.346 362.394 221.43 358.996 221.43C355.597 221.43 352.262 222.346 349.34 224.082L9.12891 419.371C6.48814 420.891 4.29776 423.084 2.78123 425.726C1.2647 428.369 0.476303 431.366 0.496471 434.413L1.22015 539.233C1.25124 544.036 2.50995 548.751 4.87671 552.931C7.24346 557.111 10.6396 560.616 14.7426 563.114L129.135 632.752C133.489 635.393 138.471 636.818 143.562 636.878C148.654 636.938 153.668 635.631 158.082 633.094L488.017 443.345C492.266 440.037 492.101 436.977 492.266 430.691Z" fill="#EFFBD9"/>
<path d="M143.899 637.373C138.602 637.375 133.406 635.923 128.877 633.176L14.4741 563.538C10.2903 561.006 6.82802 557.44 4.42006 553.184C2.0121 548.927 0.739396 544.123 0.724258 539.232L0.000580527 434.413C-0.0248408 431.272 0.785059 428.181 2.34733 425.456C3.9096 422.731 6.16809 420.47 8.89147 418.906L349.092 223.668C352.09 221.884 355.513 220.942 359.001 220.942C362.49 220.942 365.913 221.884 368.911 223.668L487.883 294.33C489.819 295.466 491.337 297.196 492.212 299.263C493.087 301.33 493.273 303.624 492.742 305.805V430.702V431.735C492.597 437.349 492.515 440.44 488.338 443.697L158.341 633.528C153.945 636.048 148.966 637.373 143.899 637.373ZM359.007 221.931C355.693 221.928 352.442 222.825 349.599 224.526L9.37737 419.805C6.82183 421.288 4.70397 423.42 3.23872 425.985C1.77347 428.551 1.01297 431.459 1.0344 434.413L1.75808 539.232C1.77438 543.954 3.00496 548.591 5.33149 552.699C7.65803 556.807 11.0023 560.248 15.0427 562.69L129.435 632.328C133.714 634.924 138.611 636.324 143.616 636.383C148.62 636.441 153.548 635.155 157.886 632.659L487.769 442.911C491.522 439.985 491.594 437.235 491.739 431.756V430.722V305.691C492.235 303.699 492.076 301.601 491.284 299.707C490.493 297.813 489.111 296.224 487.345 295.177L368.404 224.505C365.559 222.821 362.313 221.932 359.007 221.931Z" fill="#202121"/>
<path d="M487.62 294.754L368.648 224.082C365.726 222.346 362.39 221.43 358.992 221.43C355.593 221.43 352.258 222.346 349.336 224.082L5.66149 421.8C5.22534 422.051 4.86203 422.411 4.60736 422.845C4.3527 423.279 4.21547 423.771 4.20921 424.274C4.20295 424.777 4.32787 425.273 4.57165 425.713C4.81544 426.153 5.16968 426.522 5.59946 426.784L128.625 501.426C132.978 504.066 137.96 505.49 143.052 505.55C148.143 505.61 153.157 504.303 157.572 501.767L487.475 312.05C489.001 311.186 490.272 309.936 491.161 308.425C492.05 306.914 492.525 305.196 492.54 303.443C492.555 301.691 492.108 299.965 491.244 298.44C490.381 296.914 489.131 295.643 487.62 294.754Z" fill="#CBF07F"/>
<path d="M143.357 506.088C138.06 506.09 132.864 504.638 128.335 501.891L5.30998 427.249C4.8018 426.948 4.38271 426.518 4.09567 426.002C3.80863 425.486 3.66397 424.903 3.67653 424.312C3.67998 423.722 3.83841 423.143 4.13596 422.633C4.4335 422.124 4.85974 421.701 5.37201 421.407L349.088 223.668C352.085 221.884 355.509 220.942 358.997 220.942C362.485 220.942 365.909 221.884 368.906 223.668L487.879 294.33C489.464 295.264 490.775 296.598 491.681 298.199C492.587 299.8 493.056 301.612 493.04 303.451C493.025 305.291 492.525 307.094 491.592 308.68C490.658 310.265 489.324 311.577 487.724 312.484L157.789 502.232C153.4 504.761 148.422 506.091 143.357 506.088ZM359.002 221.931C355.689 221.928 352.437 222.825 349.594 224.526L5.9096 422.266C5.55195 422.479 5.25586 422.782 5.05026 423.145C4.84466 423.507 4.73658 423.917 4.73658 424.333C4.73658 424.75 4.84466 425.159 5.05026 425.522C5.25586 425.884 5.55195 426.187 5.9096 426.401L128.935 501.043C133.215 503.639 138.114 505.039 143.12 505.097C148.126 505.155 153.056 503.869 157.396 501.374L487.227 311.626C488.677 310.804 489.886 309.615 490.731 308.179C491.576 306.743 492.029 305.11 492.044 303.443C492.058 301.777 491.634 300.136 490.814 298.685C489.994 297.234 488.807 296.024 487.372 295.177L368.4 224.505C365.554 222.821 362.309 221.932 359.002 221.931Z" fill="#202121"/>
<path d="M143.733 635.812L142.74 635.802L144.911 506.129L145.904 506.14L143.733 635.812Z" fill="#202121"/>
<path d="M493.557 217.94C493.557 217.413 493.464 215.232 493.464 215.232C493.233 213.798 492.686 212.433 491.864 211.235C491.041 210.037 489.964 209.037 488.709 208.305L369.736 137.633C366.815 135.894 363.479 134.977 360.08 134.977C356.681 134.977 353.345 135.894 350.424 137.633L12.0536 332.343C9.13866 334.018 6.71213 336.425 5.01471 339.327C3.3173 342.228 2.40799 345.523 2.37699 348.885L1.95312 388.646L125.578 463.67C131.009 466.965 137.224 468.742 143.576 468.817C149.927 468.892 156.183 467.261 161.689 464.094L488.016 276.393C492.368 273.932 492.627 270.118 492.637 264.793L493.557 217.94Z" fill="#EFFBD9"/>
<path d="M143.99 469.294C137.407 469.293 130.949 467.488 125.32 464.074L1.45703 388.904L1.8809 348.854C1.92672 345.412 2.86543 342.041 4.60514 339.071C6.34486 336.101 8.82596 333.633 11.8056 331.91L350.176 137.22C353.173 135.439 356.594 134.499 360.08 134.499C363.566 134.499 366.988 135.439 369.984 137.22L488.998 207.882C490.313 208.646 491.444 209.69 492.308 210.941C493.173 212.192 493.752 213.618 494.002 215.118C494.002 215.387 494.147 217.351 494.095 217.941L493.175 264.773C493.175 270.376 492.813 274.243 488.306 276.796L161.938 464.497C156.48 467.643 150.29 469.298 143.99 469.294ZM2.45984 388.346L125.836 463.226C131.192 466.474 137.32 468.225 143.582 468.298C149.845 468.371 156.012 466.762 161.441 463.639L487.768 275.969C491.821 273.674 492.131 270.211 492.141 264.794L493.072 217.889C493.072 217.538 493.072 216.09 492.968 215.263C492.743 213.91 492.221 212.623 491.44 211.496C490.659 210.368 489.638 209.427 488.45 208.74L369.478 138.067C366.633 136.375 363.385 135.482 360.075 135.482C356.766 135.482 353.517 136.375 350.673 138.067L12.3019 332.768C9.47068 334.404 7.1132 336.748 5.46039 339.57C3.80758 342.392 2.91613 345.594 2.87337 348.864L2.45984 388.346Z" fill="#202121"/>
<path d="M488.708 208.305L369.736 137.633C366.815 135.894 363.479 134.977 360.08 134.977C356.681 134.977 353.345 135.894 350.424 137.633L12.818 331.858C11.7582 332.468 10.8757 333.344 10.2574 334.399C9.639 335.454 9.30613 336.652 9.29152 337.875C9.27691 339.097 9.58108 340.303 10.1741 341.372C10.767 342.442 11.6284 343.339 12.6733 343.974L126.125 412.858C131.557 416.156 137.774 417.935 144.128 418.009C150.482 418.084 156.739 416.451 162.247 413.282L488.563 225.611C490.088 224.746 491.359 223.495 492.248 221.984C493.136 220.472 493.612 218.753 493.627 217C493.641 215.247 493.195 213.52 492.331 211.994C491.468 210.468 490.218 209.196 488.708 208.305Z" fill="#CBF07F"/>
<path d="M144.537 418.503C137.953 418.508 131.494 416.702 125.867 413.282L12.4043 344.439C11.2873 343.759 10.3666 342.799 9.73279 341.655C9.09901 340.511 8.77396 339.221 8.7896 337.913C8.80525 336.605 9.16105 335.324 9.82203 334.195C10.483 333.066 11.4264 332.129 12.5594 331.475L350.165 137.22C353.162 135.439 356.583 134.499 360.069 134.499C363.555 134.499 366.977 135.439 369.973 137.22L488.997 207.882C490.585 208.813 491.899 210.147 492.807 211.749C493.715 213.35 494.185 215.163 494.169 217.003C494.154 218.844 493.653 220.649 492.718 222.234C491.783 223.82 490.446 225.131 488.842 226.036L162.474 413.716C157.018 416.855 150.832 418.506 144.537 418.503ZM360.09 135.483C356.774 135.485 353.52 136.381 350.672 138.078L13.066 332.333C12.0793 332.899 11.2573 333.712 10.6813 334.693C10.1053 335.673 9.79515 336.787 9.78157 337.924C9.768 339.061 10.0515 340.182 10.6039 341.176C11.1564 342.17 11.9587 343.003 12.9316 343.592L126.373 412.434C131.729 415.683 137.859 417.437 144.123 417.511C150.387 417.586 156.557 415.979 161.988 412.858L488.315 225.177C489.765 224.356 490.973 223.168 491.817 221.732C492.662 220.296 493.114 218.663 493.128 216.997C493.141 215.331 492.716 213.691 491.895 212.242C491.074 210.792 489.885 209.584 488.45 208.74L369.477 138.067C366.639 136.374 363.395 135.481 360.09 135.483Z" fill="#202121"/>
<path d="M331.381 220.887H330.057L332.776 117.442C332.983 109.516 331.055 101.681 327.194 94.7555C323.333 87.8303 317.681 82.0704 310.831 78.0786C303.98 74.0869 296.183 72.0101 288.254 72.0657C280.326 72.1214 272.558 74.3074 265.764 78.3949L249.409 88.2369C226.498 101.922 207.489 121.267 194.208 144.415C180.927 167.563 173.819 193.736 173.567 220.422H172.244C172.59 193.525 179.799 167.163 193.187 143.833C206.575 120.503 225.7 100.979 248.747 87.11L265.102 77.268C272.099 73.0571 280.098 70.8049 288.264 70.7472C296.43 70.6895 304.46 72.8284 311.516 76.94C318.571 81.0515 324.391 86.9844 328.366 94.1173C332.341 101.25 334.325 109.321 334.11 117.484L331.381 220.887Z" fill="#11302D"/>
<path d="M385.183 219.223L389.753 102.876C392.513 32.9688 323.588 -17.4405 257.774 6.42016C218.314 20.7353 184.096 46.6316 159.599 80.7188C135.102 114.806 121.468 155.496 120.483 197.461L118.601 223.172C118.253 227.482 119.529 231.767 122.178 235.185C125.765 239.744 132.423 244.489 144.426 243.724C151.679 243.377 158.66 240.856 164.461 236.487C166.948 234.575 168.99 232.147 170.448 229.37C171.906 226.593 172.746 223.533 172.908 220.401C173.251 193.617 180.426 167.363 193.754 144.128C207.083 120.893 226.122 101.445 249.07 87.6271L265.425 77.7851C295.788 59.507 334.36 81.9824 333.43 117.412L330.721 220.866C330.721 220.866 342.093 236.177 361.519 233.655C361.519 233.644 382.195 229.292 385.183 219.223Z" fill="#EFFBD9"/>
<path d="M141.903 244.293C131.089 244.293 125.02 239.599 121.795 235.485C119.065 231.972 117.748 227.565 118.104 223.13L119.985 197.461C120.976 155.392 134.645 114.602 159.202 80.4306C183.76 46.2591 218.062 20.2977 257.619 5.94459C272.879 0.40967 289.266 -1.28707 305.336 1.00388C321.406 3.29482 336.667 9.50313 349.772 19.0818C362.878 28.6604 373.426 41.3153 380.488 55.9315C387.55 70.5477 390.909 86.6765 390.269 102.897L385.668 219.305V219.367C382.629 229.602 362.479 233.955 361.632 234.141C342.072 236.684 330.451 221.321 330.327 221.166L330.234 221.021V220.856L332.953 117.401C333.16 109.446 331.224 101.582 327.349 94.6311C323.474 87.6806 317.801 81.8995 310.926 77.8931C304.05 73.8866 296.224 71.8021 288.266 71.8577C280.308 71.9132 272.512 74.1069 265.693 78.2089L249.338 88.0509C226.403 101.752 207.374 121.119 194.079 144.292C180.783 167.464 173.667 193.666 173.414 220.38C173.261 223.6 172.409 226.747 170.916 229.604C169.423 232.461 167.326 234.958 164.771 236.922C158.89 241.345 151.817 243.902 144.466 244.262C143.577 244.262 142.73 244.293 141.903 244.293ZM291.404 1.03393C279.997 1.03201 268.679 3.02636 257.96 6.92672C176.784 36.3287 123.025 111.136 120.957 197.461L119.076 223.203C118.739 227.39 119.978 231.553 122.549 234.875C125.878 239.113 132.371 243.993 144.373 243.218C151.531 242.877 158.419 240.388 164.14 236.074C166.577 234.21 168.578 231.837 170.006 229.122C171.435 226.407 172.255 223.413 172.411 220.349C172.758 193.487 179.959 167.158 193.331 143.857C206.703 120.556 225.803 101.056 248.821 87.2032L265.165 77.3612C272.136 73.1654 280.106 70.921 288.241 70.8627C296.377 70.8046 304.378 72.9348 311.408 77.0304C318.438 81.126 324.237 87.0363 328.198 94.1424C332.16 101.248 334.138 109.289 333.925 117.422L331.217 220.701C332.385 222.179 343.467 235.485 361.456 233.159C361.611 233.159 381.75 228.775 384.686 219.14L389.276 102.855C389.786 89.6795 387.633 76.5362 382.946 64.2119C378.258 51.8876 371.133 40.6357 361.995 31.1295C352.858 21.6233 341.896 14.0583 329.767 8.88708C317.637 3.71591 304.59 1.0449 291.404 1.03393Z" fill="#202121"/>
<path d="M362.239 491.667L308.315 523.416C307.595 523.84 306.998 524.444 306.583 525.169C306.167 525.894 305.948 526.715 305.947 527.551V583.998C305.947 584.872 306.185 585.731 306.637 586.479C307.089 587.228 307.737 587.839 308.511 588.247L365.278 618.31C366.448 618.926 367.754 619.236 369.076 619.211C370.397 619.185 371.691 618.826 372.836 618.166L427.732 586.365C428.457 585.944 429.06 585.341 429.48 584.616C429.901 583.891 430.125 583.068 430.13 582.23V525.669C430.124 524.83 429.898 524.007 429.476 523.281C429.053 522.556 428.448 521.954 427.721 521.534L375.865 491.636C373.794 490.434 371.442 489.804 369.048 489.81C366.654 489.815 364.304 490.456 362.239 491.667Z" fill="#EFFBD9"/>
<path d="M368.932 619.726C367.58 619.724 366.248 619.391 365.055 618.755L308.277 588.701C307.424 588.25 306.711 587.574 306.214 586.747C305.716 585.92 305.454 584.973 305.455 584.008V527.561C305.458 526.638 305.7 525.731 306.159 524.93C306.617 524.129 307.276 523.461 308.071 522.991L361.985 491.243C364.125 489.985 366.559 489.316 369.041 489.303C371.523 489.291 373.964 489.935 376.117 491.17L428.005 521.048C428.81 521.516 429.479 522.188 429.945 522.995C430.411 523.802 430.658 524.716 430.662 525.648V582.188C430.663 583.122 430.418 584.041 429.952 584.85C429.485 585.66 428.814 586.332 428.005 586.799L373.109 618.599C371.842 619.342 370.4 619.731 368.932 619.726ZM369.108 490.292C366.781 490.291 364.497 490.912 362.491 492.09L308.577 523.839C307.931 524.222 307.394 524.766 307.021 525.419C306.648 526.071 306.45 526.809 306.448 527.561V584.008C306.446 584.792 306.659 585.563 307.063 586.235C307.468 586.908 308.048 587.457 308.743 587.823L365.52 617.876C366.612 618.46 367.835 618.755 369.073 618.731C370.312 618.708 371.523 618.367 372.592 617.741L427.488 585.941C428.141 585.56 428.682 585.016 429.06 584.361C429.437 583.706 429.636 582.964 429.638 582.209V525.669C429.636 524.911 429.435 524.166 429.056 523.51C428.677 522.853 428.133 522.307 427.477 521.927L375.621 492.039C373.633 490.885 371.375 490.282 369.077 490.292H369.108Z" fill="#202121"/>
<path d="M305.947 554.802L365.351 586.241C366.498 586.851 367.781 587.158 369.08 587.135C370.378 587.111 371.65 586.757 372.774 586.107L430.13 552.869" fill="#EFFBD9"/>
<path d="M368.942 587.637C367.609 587.633 366.296 587.306 365.116 586.686L305.713 555.237L306.178 554.358L365.582 585.807C366.654 586.381 367.856 586.671 369.073 586.647C370.289 586.624 371.479 586.288 372.529 585.672L429.886 552.445L430.382 553.303L373.025 586.531C371.785 587.252 370.376 587.633 368.942 587.637Z" fill="#202121"/>
<path d="M372.32 556.383L428.147 524.066C428.353 523.947 428.524 523.776 428.643 523.57C428.762 523.364 428.825 523.131 428.825 522.893C428.825 522.655 428.762 522.421 428.643 522.215C428.524 522.009 428.353 521.838 428.147 521.719L374.16 490.601C372.622 489.703 370.872 489.229 369.09 489.229C367.308 489.229 365.558 489.703 364.019 490.601L308.078 523.58C307.873 523.704 307.703 523.88 307.587 524.091C307.471 524.301 307.413 524.539 307.418 524.779C307.424 525.019 307.492 525.254 307.617 525.459C307.742 525.664 307.919 525.833 308.13 525.948L365.859 556.507C366.859 557.032 367.976 557.296 369.105 557.275C370.235 557.253 371.341 556.946 372.32 556.383Z" fill="#CBF07F"/>
<path d="M368.96 557.789C367.781 557.79 366.619 557.498 365.579 556.941L307.861 526.382C307.571 526.227 307.328 525.998 307.155 525.719C306.983 525.439 306.889 525.118 306.881 524.79C306.874 524.462 306.954 524.137 307.114 523.85C307.273 523.563 307.506 523.323 307.789 523.156L363.719 490.218C365.331 489.271 367.166 488.767 369.036 488.758C370.906 488.749 372.745 489.235 374.367 490.167L428.353 521.285C428.634 521.447 428.868 521.681 429.029 521.962C429.191 522.244 429.275 522.563 429.273 522.887C429.277 523.212 429.194 523.532 429.032 523.814C428.87 524.096 428.636 524.329 428.353 524.49L372.527 556.807C371.443 557.438 370.214 557.776 368.96 557.789ZM369.084 489.743C367.376 489.745 365.699 490.202 364.225 491.066L308.285 524.014C308.154 524.091 308.045 524.202 307.971 524.334C307.896 524.467 307.859 524.617 307.861 524.769C307.866 524.923 307.911 525.073 307.993 525.204C308.074 525.335 308.19 525.442 308.326 525.513L366.045 556.073C366.977 556.567 368.02 556.814 369.074 556.792C370.129 556.771 371.161 556.48 372.072 555.949L427.898 523.632C428.027 523.554 428.133 523.445 428.207 523.315C428.281 523.184 428.32 523.037 428.32 522.887C428.32 522.737 428.281 522.59 428.207 522.46C428.133 522.329 428.027 522.22 427.898 522.143L373.871 491.066C372.415 490.213 370.761 489.756 369.074 489.743H369.084Z" fill="#202121"/>
<path d="M369.272 619.416L368.869 557.521L369.862 557.511L370.265 619.406L369.272 619.416Z" fill="#202121"/>
<path d="M458.407 408.464L404.493 440.213C403.772 440.636 403.173 441.24 402.756 441.965C402.339 442.69 402.119 443.512 402.115 444.348V500.795C402.117 501.669 402.356 502.526 402.808 503.275C403.26 504.023 403.906 504.635 404.679 505.044L461.457 535.107C462.626 535.723 463.933 536.033 465.254 536.008C466.576 535.983 467.869 535.623 469.014 534.963L523.9 503.162C524.625 502.741 525.227 502.138 525.648 501.413C526.069 500.688 526.293 499.865 526.298 499.027V442.477C526.294 441.637 526.069 440.813 525.646 440.087C525.224 439.362 524.618 438.76 523.889 438.341L472.043 408.36C469.964 407.17 467.607 406.553 465.211 406.571C462.816 406.589 460.468 407.242 458.407 408.464Z" fill="#EFFBD9"/>
<path d="M465.106 536.555C463.751 536.554 462.416 536.221 461.219 535.583L404.452 505.54C403.598 505.089 402.883 504.414 402.384 503.587C401.885 502.76 401.62 501.812 401.619 500.846V444.4C401.612 443.47 401.849 442.556 402.307 441.747C402.764 440.937 403.425 440.262 404.225 439.789L458.138 408.04C460.278 406.783 462.713 406.113 465.195 406.101C467.677 406.088 470.118 406.732 472.271 407.968L524.148 437.866C524.956 438.332 525.626 439.003 526.093 439.81C526.559 440.618 526.805 441.534 526.805 442.466V499.006C526.802 499.936 526.556 500.848 526.092 501.653C525.628 502.458 524.961 503.128 524.159 503.596L469.273 535.397C468.01 536.142 466.573 536.542 465.106 536.555ZM458.655 408.919L404.741 440.637C404.095 441.019 403.558 441.564 403.185 442.216C402.812 442.869 402.614 443.607 402.612 444.358V500.805C402.613 501.59 402.828 502.361 403.235 503.033C403.641 503.705 404.223 504.254 404.917 504.62L461.684 534.673C462.777 535.26 464.003 535.555 465.243 535.532C466.483 535.508 467.696 535.166 468.766 534.539L523.652 502.738C524.307 502.36 524.852 501.816 525.231 501.161C525.61 500.506 525.811 499.763 525.813 499.006V442.477C525.811 441.717 525.609 440.972 525.228 440.315C524.847 439.658 524.3 439.113 523.642 438.734L471.795 408.836C469.795 407.686 467.526 407.084 465.218 407.093C462.911 407.103 460.647 407.722 458.655 408.888V408.919Z" fill="#202121"/>
<path d="M402.156 471.589L461.56 503.038C462.709 503.649 463.994 503.956 465.295 503.931C466.596 503.905 467.869 503.548 468.993 502.893L526.339 469.666" fill="#EFFBD9"/>
<path d="M465.105 504.435C463.774 504.433 462.463 504.102 461.29 503.473L401.887 472.034L402.352 471.156L461.745 502.605C462.819 503.174 464.021 503.461 465.236 503.438C466.452 503.414 467.641 503.081 468.692 502.47L526.049 469.243L526.545 470.101L469.199 503.328C467.955 504.05 466.543 504.431 465.105 504.435Z" fill="#202121"/>
<path d="M468.485 473.181L524.312 440.864C524.518 440.745 524.689 440.574 524.808 440.368C524.927 440.162 524.99 439.929 524.99 439.691C524.99 439.453 524.927 439.219 524.808 439.013C524.689 438.807 524.518 438.636 524.312 438.517L470.336 407.389C468.79 406.501 467.036 406.037 465.253 406.047C463.47 406.056 461.721 406.537 460.184 407.441L404.223 440.409C404.015 440.532 403.843 440.708 403.726 440.92C403.609 441.131 403.551 441.37 403.557 441.611C403.563 441.853 403.634 442.088 403.762 442.293C403.89 442.498 404.071 442.665 404.285 442.777L462.003 473.337C463.009 473.859 464.131 474.118 465.264 474.091C466.397 474.064 467.505 473.751 468.485 473.181Z" fill="#CBF07F"/>
<path d="M465.126 474.587C463.95 474.589 462.792 474.297 461.756 473.74L404.027 443.18C403.737 443.025 403.494 442.797 403.322 442.517C403.149 442.237 403.055 441.917 403.047 441.588C403.04 441.26 403.12 440.935 403.28 440.648C403.439 440.361 403.672 440.122 403.955 439.954L459.895 407.017C461.507 406.067 463.342 405.562 465.212 405.553C467.083 405.544 468.922 406.031 470.543 406.965L524.519 438.083C524.8 438.246 525.034 438.48 525.197 438.761C525.36 439.042 525.447 439.361 525.45 439.685C525.451 440.011 525.366 440.331 525.202 440.613C525.039 440.895 524.803 441.128 524.519 441.288L468.693 473.605C467.61 474.239 466.38 474.577 465.126 474.587ZM465.261 406.541C463.549 406.542 461.868 406.999 460.391 407.864L404.461 440.802C404.327 440.878 404.216 440.99 404.142 441.125C404.067 441.26 404.031 441.413 404.037 441.567C404.041 441.719 404.084 441.867 404.164 441.996C404.244 442.125 404.358 442.231 404.492 442.301L462.221 472.861C463.149 473.36 464.191 473.612 465.244 473.592C466.298 473.572 467.329 473.281 468.238 472.747L524.064 440.43C524.196 440.355 524.304 440.246 524.38 440.116C524.456 439.985 524.496 439.837 524.496 439.685C524.496 439.534 524.456 439.386 524.38 439.255C524.304 439.125 524.196 439.016 524.064 438.941L470.088 407.823C468.608 406.972 466.927 406.529 465.219 406.541H465.261Z" fill="#202121"/>
<path d="M465.436 536.204L465.043 474.319L466.035 474.309L466.428 536.204H465.436Z" fill="#202121"/>
<path d="M261.744 548.96L207.799 580.688C207.078 581.112 206.481 581.716 206.066 582.441C205.65 583.167 205.432 583.988 205.432 584.824V641.26C205.43 642.137 205.668 642.996 206.12 643.747C206.572 644.498 207.221 645.111 207.996 645.52L264.763 675.573C265.931 676.194 267.238 676.506 268.56 676.481C269.883 676.455 271.177 676.093 272.32 675.428L327.206 643.628C327.933 643.208 328.538 642.606 328.96 641.88C329.383 641.155 329.608 640.332 329.615 639.492V582.942C329.608 582.103 329.383 581.28 328.96 580.554C328.538 579.829 327.933 579.227 327.206 578.807L275.349 548.919C273.28 547.723 270.931 547.097 268.541 547.104C266.151 547.111 263.806 547.752 261.744 548.96Z" fill="#EFFBD9"/>
<path d="M268.439 677C267.087 676.995 265.757 676.661 264.562 676.028L207.795 645.965C206.941 645.515 206.226 644.84 205.728 644.012C205.231 643.185 204.969 642.237 204.973 641.271V584.835C204.975 583.91 205.218 583.002 205.676 582.2C206.135 581.397 206.793 580.727 207.588 580.255L261.502 548.506C263.643 547.25 266.078 546.583 268.56 546.572C271.042 546.561 273.483 547.207 275.635 548.444L327.491 578.342C328.297 578.81 328.967 579.481 329.433 580.288C329.899 581.095 330.146 582.011 330.148 582.943V639.472C330.145 640.404 329.898 641.319 329.432 642.126C328.966 642.933 328.297 643.604 327.491 644.073L272.605 675.873C271.341 676.611 269.903 677 268.439 677ZM268.615 547.565C266.288 547.563 264.004 548.184 261.998 549.364L208.074 581.113C207.429 581.496 206.894 582.041 206.522 582.693C206.151 583.346 205.955 584.084 205.955 584.835V641.271C205.952 642.057 206.165 642.829 206.569 643.504C206.974 644.178 207.555 644.729 208.25 645.096L265.028 675.149C266.119 675.734 267.343 676.029 268.581 676.005C269.819 675.981 271.03 675.641 272.099 675.015L326.985 643.215C327.64 642.834 328.185 642.288 328.564 641.631C328.943 640.975 329.143 640.23 329.145 639.472V582.943C329.145 582.184 328.946 581.439 328.566 580.782C328.187 580.125 327.642 579.58 326.985 579.2L275.128 549.302C273.146 548.163 270.901 547.564 268.615 547.565Z" fill="#202121"/>
<path d="M205.461 612.024L264.854 643.473C266.004 644.082 267.289 644.389 268.589 644.363C269.89 644.338 271.163 643.982 272.287 643.329L329.644 610.102" fill="#EFFBD9"/>
<path d="M268.441 644.91C267.11 644.909 265.799 644.578 264.626 643.949L205.223 612.51L205.688 611.632L265.091 643.039C266.166 643.608 267.367 643.894 268.582 643.871C269.798 643.847 270.987 643.515 272.039 642.905L329.395 609.678L329.892 610.536L272.535 643.763C271.296 644.5 269.883 644.896 268.441 644.91Z" fill="#202121"/>
<path d="M271.832 613.648L327.659 581.33C327.865 581.213 328.037 581.043 328.156 580.838C328.276 580.632 328.338 580.399 328.338 580.162C328.338 579.925 328.276 579.691 328.156 579.486C328.037 579.281 327.865 579.111 327.659 578.994L273.683 547.865C272.141 546.969 270.39 546.497 268.607 546.497C266.824 546.497 265.072 546.969 263.531 547.865L207.601 580.803C207.392 580.925 207.22 581.1 207.102 581.311C206.984 581.522 206.925 581.76 206.93 582.002C206.935 582.243 207.005 582.479 207.132 582.685C207.259 582.89 207.439 583.058 207.653 583.17L265.371 613.73C266.368 614.26 267.483 614.53 268.612 614.515C269.741 614.501 270.849 614.202 271.832 613.648Z" fill="#CBF07F"/>
<path d="M268.462 615.053C267.287 615.052 266.131 614.764 265.092 614.216L207.363 583.656C207.073 583.502 206.83 583.273 206.657 582.993C206.485 582.713 206.391 582.393 206.383 582.064C206.376 581.736 206.456 581.412 206.616 581.125C206.775 580.837 207.008 580.598 207.291 580.431L263.231 547.483C264.848 546.543 266.685 546.048 268.555 546.048C270.425 546.048 272.262 546.543 273.879 547.483L327.855 578.601C328.139 578.761 328.375 578.994 328.54 579.275C328.704 579.557 328.791 579.877 328.791 580.203C328.791 580.529 328.704 580.849 328.54 581.131C328.375 581.412 328.139 581.645 327.855 581.806L272.08 614.092C270.98 614.724 269.732 615.056 268.462 615.053ZM268.596 547.017C266.888 547.018 265.21 547.475 263.737 548.341L207.797 581.278C207.664 581.353 207.553 581.461 207.475 581.593C207.398 581.725 207.357 581.875 207.357 582.028C207.357 582.181 207.398 582.331 207.475 582.462C207.553 582.594 207.664 582.703 207.797 582.777L265.526 613.337C266.454 613.836 267.496 614.088 268.549 614.068C269.603 614.048 270.634 613.757 271.543 613.223L327.318 580.906C327.451 580.833 327.561 580.725 327.638 580.594C327.714 580.463 327.754 580.314 327.752 580.162C327.752 580.01 327.711 579.862 327.635 579.731C327.559 579.6 327.449 579.492 327.318 579.417L273.342 548.299C271.899 547.464 270.263 547.022 268.596 547.017Z" fill="#202121"/>
<path d="M268.782 676.679L268.379 614.784H269.371L269.764 676.679H268.782Z" fill="#202121"/>
<g clip-path="url(#clip1_659_10518)">
<path d="M141.604 326.297L150.195 321.337C166.569 325.149 170.166 326.359 176.55 329.797L179.074 328.34C173.115 324.652 171.02 322.575 164.421 313.124L173.012 308.163L188.849 330.327L179.991 335.441L141.604 326.297Z" fill="#11302D"/>
<path d="M185.25 316.779C176.988 312.01 177.423 304.871 186.271 299.763C196.097 294.09 210.002 294.492 218.055 300.691L195.452 313.741C199.586 315.323 204.686 314.983 208.601 312.723C211.447 311.08 212.681 309.003 212.038 307.019L219.93 302.463C223.472 306.987 221.539 312.257 214.666 316.225C205.814 321.336 193.465 321.522 185.25 316.779ZM205.708 302.181C201.42 300.567 196.259 300.94 192.285 303.234C188.31 305.529 187.774 308.504 190.514 310.953L205.708 302.181Z" fill="#11302D"/>
<path d="M204.584 289.935L212.413 285.415C214.344 286.718 215.363 287.864 216.277 289.756L219.658 289.166C216.771 285.006 217.576 281.814 221.979 279.272C228.048 275.768 236.099 276.327 243.784 280.764L259.256 289.697L251.309 294.284L237.225 286.153C232.77 283.58 228.421 283.364 224.609 285.565C220.797 287.766 221.118 290.308 225.573 292.88L239.641 301.002L231.696 305.589L204.584 289.935Z" fill="#11302D"/>
<path d="M247.693 280.729C239.48 275.987 239.857 268.826 248.554 263.804C256.23 259.373 266.969 258.567 274.925 261.722L267.398 266.068C263.426 265.014 258.969 265.54 255.587 267.493C251.13 270.066 251.076 273.631 255.531 276.203C259.934 278.745 266.048 278.741 270.559 276.137C274.155 274.061 274.962 271.302 272.761 268.977L280.217 264.672C286.077 269.347 284.888 275.675 276.996 280.232C268.311 285.254 255.856 285.441 247.693 280.729Z" fill="#11302D"/>
<path d="M279.693 262.254C271.48 257.512 272.071 250.227 281.089 245.02C290.107 239.814 302.736 239.466 310.949 244.208C319.162 248.95 318.573 256.235 309.553 261.443C300.471 266.686 287.856 266.966 279.693 262.254ZM303.048 248.77C298.538 246.167 292.363 246.26 287.8 248.895C283.184 251.559 283.022 255.125 287.531 257.728C291.988 260.301 298.156 260.203 302.772 257.539C307.344 254.907 307.504 251.343 303.048 248.77Z" fill="#11302D"/>
<path d="M139.951 335.185L146.089 338.729C146.174 338.777 146.241 338.834 146.287 338.897C146.333 338.961 146.357 339.029 146.357 339.097C146.357 339.166 146.334 339.234 146.288 339.297C146.242 339.36 146.175 339.418 146.091 339.466L138.821 343.663C138.653 343.761 138.559 343.893 138.559 344.031C138.559 344.169 138.653 344.301 138.821 344.399L144.972 347.951L130.632 356.23L124.481 352.678C124.311 352.581 124.081 352.527 123.842 352.527C123.603 352.527 123.374 352.582 123.204 352.68L115.934 356.877C115.851 356.926 115.751 356.965 115.641 356.991C115.531 357.018 115.413 357.032 115.294 357.032C115.175 357.032 115.057 357.019 114.946 356.992C114.836 356.966 114.736 356.928 114.652 356.879L108.514 353.335L122.867 345.048L129.005 348.592C129.089 348.641 129.188 348.679 129.298 348.706C129.407 348.732 129.524 348.746 129.643 348.746C129.762 348.746 129.879 348.732 129.989 348.706C130.098 348.68 130.198 348.642 130.282 348.593L131.754 347.743C131.923 347.645 132.017 347.512 132.017 347.374C132.017 347.236 131.923 347.103 131.754 347.005L125.616 343.461L139.951 335.185Z" fill="#11302D"/>
<path d="M116.711 341.493L122.862 345.045L108.509 353.331L102.289 349.74C102.175 349.669 102.102 349.579 102.08 349.482C102.058 349.386 102.088 349.288 102.166 349.202C102.187 349.175 102.212 349.149 102.241 349.124C102.275 349.095 102.314 349.068 102.356 349.043L115.432 341.493C115.516 341.444 115.616 341.406 115.726 341.379C115.835 341.353 115.953 341.34 116.072 341.34C116.191 341.34 116.308 341.353 116.418 341.379C116.528 341.406 116.627 341.444 116.711 341.493Z" fill="#11302D"/>
<path d="M133.726 331.59L139.952 335.185L125.599 343.471L119.373 339.877C119.241 339.794 119.164 339.686 119.155 339.574C119.145 339.461 119.205 339.35 119.323 339.26C119.357 339.231 119.396 339.204 119.438 339.178L132.509 331.632C132.553 331.607 132.6 331.585 132.651 331.565L132.809 331.515C132.957 331.472 133.124 331.456 133.288 331.469C133.452 331.483 133.605 331.525 133.726 331.59Z" fill="#11302D"/>
<path d="M144.972 347.951L151.191 351.541C151.34 351.639 151.417 351.768 151.404 351.898C151.391 352.029 151.29 352.152 151.122 352.24L138.053 359.785C137.901 359.882 137.689 359.94 137.462 359.947C137.236 359.955 137.014 359.911 136.843 359.825L130.625 356.234L144.972 347.951Z" fill="#11302D"/>
</g>
</g>
<defs>
<clipPath id="clip0_659_10518">
<rect width="526.796" height="677" fill="white"/>
</clipPath>
<clipPath id="clip1_659_10518">
<rect width="225.991" height="32.8564" fill="white" transform="matrix(0.866025 -0.5 0.866025 0.5 101 348.996)"/>
</clipPath>
</defs>
</svg>
