<svg xmlns="http://www.w3.org/2000/svg" viewBox="0 0 1194 2636" class=""><path fill="#2B524E" fill-rule="evenodd" d="M18.688 308.327h254.79a18.006 18.006 0 0 1 18.008 18.036v49.89a18.007 18.007 0 0 0-18.008-17.943H18.688a18.002 18.002 0 0 0-16.645 11.136 18.008 18.008 0 0 0-1.363 6.9v271.268a18.005 18.005 0 0 0 11.103 16.69 18.018 18.018 0 0 0 6.905 1.376h254.79a18.007 18.007 0 0 1 18.008 18.007v49.983a18.008 18.008 0 0 0-18.008-18.008H18.688A18.009 18.009 0 0 0 .68 733.67v271.27a18.006 18.006 0 0 0 11.103 16.69c2.189.91 4.535 1.37 6.905 1.37h254.79c2.367 0 4.711.47 6.898 1.38 2.187.9 4.173 2.23 5.846 3.91a17.927 17.927 0 0 1 3.901 5.85 18.024 18.024 0 0 1 1.363 6.9v49.85a17.951 17.951 0 0 0-1.363-6.76 18.075 18.075 0 0 0-3.901-5.86c-1.673-1.67-3.659-3-5.846-3.91-2.186-.9-4.53-1.37-6.898-1.37H18.688c-2.367 0-4.711.47-6.898 1.37a18.14 18.14 0 0 0-5.846 3.91 18.073 18.073 0 0 0-3.901 5.86 17.967 17.967 0 0 0-1.363 6.9v271.26a18.011 18.011 0 0 0 5.234 12.81 18.062 18.062 0 0 0 5.856 3.94c2.192.91 4.544 1.38 6.918 1.38h254.79c2.368 0 4.712.46 6.898 1.37 2.187.91 4.173 2.24 5.846 3.91a18.033 18.033 0 0 1 3.901 5.85 18.024 18.024 0 0 1 1.363 6.9v147.01c0 2.36.467 4.71 1.373 6.9a18.001 18.001 0 0 0 9.763 9.74 17.96 17.96 0 0 0 6.9 1.37h254.762c2.367 0 4.712-.46 6.9-1.37a18.001 18.001 0 0 0 11.136-16.64v-271.27c0-4.78-1.9-9.37-5.283-12.75a18.01 18.01 0 0 0-12.753-5.29H309.522c-4.783 0-9.371-1.9-12.753-5.28a18.028 18.028 0 0 1-5.283-12.75v-50a18.041 18.041 0 0 0 5.282 12.65 18.045 18.045 0 0 0 12.754 5.28h254.761c4.784 0 9.372-1.9 12.754-5.28a18.028 18.028 0 0 0 5.283-12.75V916.747a18.033 18.033 0 0 0-18.037-18.036H309.522a18.035 18.035 0 0 1-18.036-18.037v-49.982a18.036 18.036 0 0 0 18.036 18.036h254.761a18.034 18.034 0 0 0 18.037-18.036V559.423a18.033 18.033 0 0 0-18.037-18.036H309.522a18.01 18.01 0 0 1-18.036-18.008v-49.954a18.003 18.003 0 0 0 11.136 16.588 18.008 18.008 0 0 0 6.9 1.362h254.761a18.005 18.005 0 0 0 18.037-18.008V202.099a18.037 18.037 0 0 0-18.037-18.036H309.522a18.04 18.04 0 0 1-18.036-18.037V19.022a17.997 17.997 0 0 0-11.11-16.663 18.01 18.01 0 0 0-6.898-1.374H18.688A18.007 18.007 0 0 0 .68 19.022V290.29a18.008 18.008 0 0 0 18.008 18.037Zm0 1429.353h254.79c4.776 0 9.356 1.9 12.733 5.27a18.022 18.022 0 0 1 5.275 12.74v49.98a18.016 18.016 0 0 0-18.008-18.01H18.688A18.015 18.015 0 0 0 .68 1805.67v271.27a18.006 18.006 0 0 0 11.103 16.69c2.189.91 4.535 1.38 6.905 1.38h254.79c2.367 0 4.711.46 6.898 1.37 2.187.91 4.173 2.24 5.846 3.91a18.033 18.033 0 0 1 3.901 5.85 18.062 18.062 0 0 1 1.363 6.9v146.98a18.031 18.031 0 0 0 18.036 18.03h254.761c4.784 0 9.372-1.9 12.754-5.28a18.028 18.028 0 0 0 5.283-12.75v-271.27c0-4.78-1.9-9.37-5.283-12.75a18.011 18.011 0 0 0-12.754-5.29H309.522a18.031 18.031 0 0 1-18.036-18.03v-49.93c0 4.78 1.9 9.37 5.282 12.75a18.013 18.013 0 0 0 12.754 5.29h254.761c4.784 0 9.372-1.9 12.754-5.29a18.028 18.028 0 0 0 5.283-12.75v-271.27c0-4.78-1.9-9.37-5.283-12.75a18.043 18.043 0 0 0-12.754-5.28H309.522a17.96 17.96 0 0 1-6.9-1.37 17.99 17.99 0 0 1-5.852-3.9 18.035 18.035 0 0 1-3.911-5.84 18.053 18.053 0 0 1-1.373-6.9v-147.09c.003-2.37-.46-4.72-1.363-6.9a18.075 18.075 0 0 0-3.901-5.86c-1.673-1.67-3.659-3-5.846-3.91a18.135 18.135 0 0 0-6.898-1.37H18.688c-2.367 0-4.711.47-6.898 1.37a18.14 18.14 0 0 0-5.846 3.91 18.073 18.073 0 0 0-3.901 5.86 17.967 17.967 0 0 0-1.363 6.9v271.26c-.007 2.37.453 4.72 1.354 6.91a17.97 17.97 0 0 0 3.9 5.87 17.979 17.979 0 0 0 5.85 3.91c2.188.91 4.534 1.38 6.904 1.38Zm254.79 714.65H18.688c-2.368 0-4.712-.47-6.898-1.37a18.008 18.008 0 0 1-5.846-3.92 18.004 18.004 0 0 1-5.264-12.75v-271.27a18.04 18.04 0 0 1 1.363-6.9c.903-2.18 2.229-4.17 3.901-5.85a18.14 18.14 0 0 1 5.846-3.91c2.186-.91 4.53-1.37 6.898-1.37h254.79c2.367 0 4.711.46 6.898 1.37 2.186.91 4.173 2.24 5.845 3.91a18.127 18.127 0 0 1 3.902 5.85 18.062 18.062 0 0 1 1.363 6.9v147.01c0 4.78 1.9 9.37 5.282 12.75a18.055 18.055 0 0 0 12.754 5.29h254.761c4.784 0 9.372 1.9 12.754 5.28a18.028 18.028 0 0 1 5.283 12.75v271.27c0 2.37-.467 4.71-1.374 6.9a18.003 18.003 0 0 1-3.911 5.84c-1.675 1.68-3.664 3-5.852 3.91-2.188.9-4.532 1.36-6.9 1.36H309.522c-2.367 0-4.712-.46-6.9-1.36a18.019 18.019 0 0 1-5.852-3.91 18.035 18.035 0 0 1-3.911-5.84 18.015 18.015 0 0 1-1.373-6.9v-147a18.062 18.062 0 0 0-5.265-12.76c-1.672-1.67-3.659-3-5.845-3.91a18.135 18.135 0 0 0-6.898-1.37Zm611 0h-254.79c-2.368 0-4.712-.47-6.898-1.37a18.011 18.011 0 0 1-5.846-3.92 18.005 18.005 0 0 1-5.264-12.75v-271.27c-.004-2.36.459-4.71 1.362-6.9.904-2.18 2.23-4.17 3.902-5.85 1.673-1.67 3.659-3 5.846-3.91a17.94 17.94 0 0 1 6.898-1.37h254.79c2.367 0 4.711.46 6.898 1.37 2.186.91 4.173 2.24 5.845 3.91a18.127 18.127 0 0 1 3.902 5.85 18.042 18.042 0 0 1 1.362 6.9v147.01c0 4.78 1.901 9.37 5.283 12.75a18.055 18.055 0 0 0 12.754 5.29h254.758c4.79 0 9.37 1.9 12.76 5.28 3.38 3.38 5.28 7.97 5.28 12.75v271.27c0 2.37-.47 4.71-1.37 6.9a18.16 18.16 0 0 1-3.91 5.84c-1.68 1.68-3.67 3-5.86 3.91-2.18.9-4.53 1.36-6.9 1.36H920.522c-2.367 0-4.712-.46-6.9-1.36a18.019 18.019 0 0 1-5.852-3.91 18.035 18.035 0 0 1-3.911-5.84 18.016 18.016 0 0 1-1.374-6.9v-147c.004-2.37-.459-4.72-1.362-6.9a18.062 18.062 0 0 0-3.902-5.86c-1.672-1.67-3.659-3-5.845-3.91a18.135 18.135 0 0 0-6.898-1.37Zm-254.79-357.32h254.79c2.367 0 4.711.46 6.898 1.37 2.187.91 4.173 2.24 5.846 3.91a18.033 18.033 0 0 1 3.901 5.85 18.062 18.062 0 0 1 1.363 6.9v146.98a18.031 18.031 0 0 0 18.036 18.03h254.758c4.79 0 9.37-1.9 12.76-5.28 3.38-3.38 5.28-7.97 5.28-12.75v-271.27c0-4.78-1.9-9.37-5.28-12.75a18.028 18.028 0 0 0-12.76-5.29H920.522a18.031 18.031 0 0 1-18.036-18.03v-49.93c0 4.78 1.9 9.37 5.282 12.75a18.013 18.013 0 0 0 12.754 5.29h254.758c4.79 0 9.37-1.9 12.76-5.29 3.38-3.38 5.28-7.97 5.28-12.75v-271.27c0-4.78-1.9-9.37-5.28-12.75a18.06 18.06 0 0 0-12.76-5.28H920.522a17.96 17.96 0 0 1-6.9-1.37 17.99 17.99 0 0 1-5.852-3.9 18.035 18.035 0 0 1-3.911-5.84 18.053 18.053 0 0 1-1.373-6.9v-147.09c.003-2.37-.46-4.72-1.363-6.9a18.075 18.075 0 0 0-3.901-5.86c-1.673-1.67-3.659-3-5.846-3.91a18.135 18.135 0 0 0-6.898-1.37h-254.79c-2.368 0-4.711.47-6.898 1.37a18.143 18.143 0 0 0-5.846 3.91 18.075 18.075 0 0 0-3.901 5.86 17.95 17.95 0 0 0-1.363 6.9v271.26a18.028 18.028 0 0 0 5.254 12.78 17.985 17.985 0 0 0 5.849 3.91c2.189.91 4.535 1.38 6.905 1.38h254.79c4.776 0 9.356 1.9 12.733 5.27a18.022 18.022 0 0 1 5.275 12.74v49.98a18.016 18.016 0 0 0-18.008-18.01h-254.79a18.015 18.015 0 0 0-18.008 18.01v271.27c-.007 2.37.453 4.72 1.354 6.91a18.013 18.013 0 0 0 16.654 11.16Zm0-714.59h254.79c2.367 0 4.712.46 6.898 1.37 2.187.91 4.173 2.24 5.846 3.91a18.033 18.033 0 0 1 3.901 5.85 18.024 18.024 0 0 1 1.363 6.9v147.01c0 2.36.467 4.71 1.373 6.9a18.001 18.001 0 0 0 9.763 9.74 17.96 17.96 0 0 0 6.9 1.37h254.758c2.37 0 4.72-.46 6.9-1.37 2.19-.9 4.18-2.23 5.86-3.9 1.67-1.67 3-3.66 3.91-5.84.9-2.19 1.37-4.54 1.37-6.9v-271.27c0-4.78-1.9-9.37-5.28-12.75a18.028 18.028 0 0 0-12.76-5.29H920.522c-4.783 0-9.371-1.9-12.753-5.28a18.028 18.028 0 0 1-5.283-12.75v-50.01c.025 4.75 1.922 9.3 5.282 12.66a18.045 18.045 0 0 0 12.754 5.28h254.758c4.79 0 9.37-1.9 12.76-5.28 3.38-3.38 5.28-7.97 5.28-12.75V916.747c0-4.783-1.9-9.371-5.28-12.753a18.051 18.051 0 0 0-12.76-5.283H920.522a18.035 18.035 0 0 1-18.036-18.037v-49.982a18.036 18.036 0 0 0 18.036 18.036h254.758c4.79 0 9.37-1.9 12.76-5.283a18.043 18.043 0 0 0 5.28-12.753V559.423c0-4.783-1.9-9.371-5.28-12.753a18.051 18.051 0 0 0-12.76-5.283H920.522a18.01 18.01 0 0 1-18.036-18.008v-49.945a18 18 0 0 0 5.284 12.677 18.008 18.008 0 0 0 12.752 5.264h254.758c2.37.004 4.72-.459 6.9-1.362 2.19-.904 4.18-2.23 5.86-3.902 1.67-1.673 3-3.659 3.91-5.846.9-2.186 1.37-4.53 1.37-6.898V202.099c0-4.783-1.9-9.371-5.28-12.754a18.054 18.054 0 0 0-12.76-5.282H920.522a18.04 18.04 0 0 1-18.037-18.037V19.022A18.009 18.009 0 0 0 884.478.985h-254.79a18.003 18.003 0 0 0-12.744 5.285 18.009 18.009 0 0 0-5.264 12.752V290.29a18.008 18.008 0 0 0 18.008 18.037h254.79a18.006 18.006 0 0 1 18.007 18.036v49.882a18.01 18.01 0 0 0-18.007-17.935h-254.79a18.002 18.002 0 0 0-16.645 11.136 17.99 17.99 0 0 0-1.363 6.9v271.268a18.007 18.007 0 0 0 18.008 18.066h254.79a18.007 18.007 0 0 1 18.008 18.007v49.983a18.008 18.008 0 0 0-18.008-18.008h-254.79a18.01 18.01 0 0 0-18.008 18.008v271.27c-.007 2.37.453 4.72 1.354 6.91a18.013 18.013 0 0 0 9.749 9.78c2.189.91 4.535 1.37 6.905 1.37h254.79c2.367 0 4.711.47 6.898 1.38 2.187.9 4.173 2.23 5.846 3.91a17.927 17.927 0 0 1 3.901 5.85 18.024 18.024 0 0 1 1.363 6.9v49.86a17.924 17.924 0 0 0-1.363-6.77 18.075 18.075 0 0 0-3.901-5.86c-1.673-1.67-3.659-3-5.846-3.91a18.13 18.13 0 0 0-6.898-1.37h-254.79c-2.367 0-4.711.47-6.898 1.37a18.143 18.143 0 0 0-5.846 3.91 18.075 18.075 0 0 0-3.901 5.86 17.987 17.987 0 0 0-1.363 6.9v271.26a18.018 18.018 0 0 0 11.09 16.75c2.192.91 4.543 1.38 6.918 1.38Z" clip-rule="evenodd"/></svg>