<svg width="180" height="28" viewBox="0 0 180 28" fill="none" xmlns="http://www.w3.org/2000/svg">
<g clip-path="url(#clip0_758_42397)">
<path d="M36.75 1.5083H44.6515C49.1449 12.0739 49.8358 14.6918 50.0329 20.3663H52.3542C52.5513 14.6883 53.2422 12.0705 57.7356 1.5083H65.6371L55.2669 26.4438H47.1202L36.75 1.5083Z" fill="#CBF07F"/>
<path d="M64.4043 13.9991C64.4043 6.40101 70.2897 0.915039 78.4278 0.915039C87.4643 0.915039 93.5382 7.63021 92.3039 16.2706H71.5155C72.1567 19.4319 74.7728 21.5063 78.373 21.5063C80.9908 21.5063 83.2126 20.4194 84.4967 18.5439H91.7553C89.7804 23.7761 84.6938 27.0848 78.373 27.0848C70.2314 27.0848 64.4043 21.5543 64.4043 13.9991ZM85.4396 11.779C84.7538 8.52168 82.0829 6.44558 78.4278 6.44558C74.7728 6.44558 72.1567 8.56797 71.4658 11.779H85.4396Z" fill="#CBF07F"/>
<path d="M94.6738 1.50839H101.874C101.725 3.43362 101.281 4.8154 100.194 6.74235L102.219 7.82754C104.204 3.18675 107.117 1.01465 111.166 1.01465C116.748 1.01465 120.005 5.1617 120.005 12.23V26.4593H112.697V13.5055C112.697 9.40819 110.869 7.23608 107.364 7.23608C103.858 7.23608 101.98 9.40819 101.98 13.5055V26.4438H94.6738V1.50839Z" fill="#CBF07F"/>
<path d="M121.832 13.9991C121.832 6.44559 127.709 0.915039 135.708 0.915039C142.768 0.915039 148.348 5.21124 149.493 11.383H142.571C141.583 8.71712 139.115 7.08676 136.005 7.08676C131.906 7.08676 129.041 9.90175 129.041 13.9991C129.041 18.0484 131.856 20.8566 136.005 20.8566C139.312 20.8566 141.88 19.0308 142.72 16.166H149.577C148.549 22.5846 142.962 27.078 135.703 27.078C127.709 27.0848 121.832 21.5063 121.832 13.9991Z" fill="#CBF07F"/>
<path d="M151.262 13.9991C151.262 6.44558 157.336 0.915039 165.63 0.915039C173.924 0.915039 180.008 6.44558 180.008 13.9991C180.008 21.5526 173.934 27.0848 165.638 27.0848C157.286 27.0848 151.262 21.5063 151.262 13.9991ZM172.741 13.9991C172.741 9.85203 169.827 7.08676 165.63 7.08676C161.385 7.08676 158.471 9.85203 158.471 13.9991C158.471 18.0981 161.385 20.8565 165.63 20.8565C169.828 20.8634 172.741 18.0981 172.741 13.9991Z" fill="#CBF07F"/>
<path d="M28.9128 7.82764V13.473C28.9135 13.5503 28.8988 13.6269 28.8696 13.6985C28.8404 13.77 28.7973 13.835 28.7427 13.8898C28.6882 13.9445 28.6233 13.9878 28.5518 14.0172C28.4804 14.0466 28.4038 14.0615 28.3265 14.0611H21.6405C21.4852 14.062 21.3366 14.124 21.2269 14.2338C21.1171 14.3436 21.055 14.4922 21.0541 14.6474V20.3048H7.86552V14.6474C7.86461 14.4919 7.80232 14.343 7.69219 14.2332C7.58206 14.1234 7.43301 14.0615 7.27749 14.0611H0.591457C0.513948 14.0615 0.437114 14.0466 0.365375 14.0173C0.293636 13.988 0.228407 13.9447 0.17344 13.8901C0.118473 13.8354 0.0748521 13.7704 0.0450867 13.6989C0.0153214 13.6273 -1.31758e-06 13.5506 0 13.473L0 7.82764H13.2006V13.473C13.2004 13.5502 13.2154 13.6266 13.2448 13.6979C13.2741 13.7693 13.3173 13.8341 13.3718 13.8887C13.4262 13.9434 13.4909 13.9867 13.5622 14.0163C13.6334 14.0459 13.7098 14.0611 13.7869 14.0611H15.1413C15.297 14.0602 15.446 13.9979 15.5561 13.8878C15.6662 13.7778 15.7284 13.6287 15.7293 13.473V7.82764H28.9128Z" fill="#B6D468"/>
<path d="M13.2006 2.16518V7.82259H0V2.10175C0.0042729 1.99235 0.0423365 1.88696 0.108955 1.80008C0.175574 1.7132 0.267475 1.64909 0.372018 1.61658C0.403148 1.60463 0.435275 1.59545 0.468022 1.58915C0.507031 1.58173 0.54661 1.57772 0.586314 1.57715H12.6126C12.6899 1.57692 12.7665 1.59198 12.8379 1.62145C12.9093 1.65092 12.9743 1.69423 13.0289 1.74888C13.0836 1.80352 13.1269 1.86844 13.1563 1.93988C13.1858 2.01133 13.2009 2.08789 13.2006 2.16518Z" fill="#CBF07F"/>
<path d="M28.9135 2.10151V7.82749H15.7129V2.10151C15.7185 1.97459 15.7684 1.85365 15.8539 1.7597C15.9394 1.66574 16.0551 1.60471 16.1809 1.5872C16.2199 1.57978 16.2595 1.57576 16.2992 1.5752H28.3203C28.3601 1.57576 28.3996 1.57978 28.4386 1.5872L28.5518 1.61977C28.6541 1.65339 28.7437 1.71761 28.8084 1.80376C28.8731 1.88991 28.9098 1.99384 28.9135 2.10151Z" fill="#CBF07F"/>
<path d="M21.0549 20.3047V26.0238C21.0451 26.1709 20.9781 26.3082 20.8681 26.4063C20.7581 26.5045 20.614 26.5555 20.4668 26.5484H8.4474C8.3002 26.5555 8.1561 26.5045 8.04613 26.4063C7.93615 26.3082 7.86909 26.1709 7.85938 26.0238V20.3047H21.0549Z" fill="#CBF07F"/>
</g>
<defs>
<clipPath id="clip0_758_42397">
<rect width="180" height="26.1698" fill="white" transform="translate(0 0.915039)"/>
</clipPath>
</defs>
</svg>
