<svg xmlns="http://www.w3.org/2000/svg" viewBox="0 0 732 813" fill="none"><defs><clipPath id="shape"><path fill="#CBF07F" d="M.895.746v812h541.207c10.08 0 19.746-3.967 26.874-11.028 7.127-7.061 11.131-16.638 11.131-26.623V634.329c0-4.95.986-9.852 2.9-14.424a37.62 37.62 0 0 1 8.256-12.223 38.032 38.032 0 0 1 12.352-8.157 38.298 38.298 0 0 1 14.565-2.847h75.109c5.014 0 9.978-.983 14.606-2.892a38.01 38.01 0 0 0 12.364-8.23 37.625 37.625 0 0 0 8.22-12.305 37.353 37.353 0 0 0 2.816-14.49V.746H.895Z"/></clipPath></defs><image clip-path="url(#shape)" xmlns:xlink="http://www.w3.org/1999/xlink" xlink:href="/static/media/security.abecd33614cf852df18a.webp" height="100%"/></svg>