<svg width="500" height="488" viewBox="0 0 500 488" fill="none" xmlns="http://www.w3.org/2000/svg">
<g clip-path="url(#clip0_750_40487)">
<path d="M483.182 347.347L253.176 480.897C252.382 481.349 251.484 481.587 250.571 481.587C249.658 481.587 248.76 481.349 247.967 480.897L23.1328 354.2C16.9023 350.694 13.2365 347.68 13.2365 336.987L12.9395 326.844L488.478 321.65V338.074C488.487 339.948 488.003 341.792 487.073 343.42C486.144 345.048 484.801 346.403 483.182 347.347Z" fill="#5D4896"/>
<path d="M250.547 481.969C249.58 481.968 248.629 481.718 247.787 481.244L22.9529 354.526C16.86 351.092 12.8682 348.006 12.8682 336.987L12.5566 326.496H12.9334L488.856 321.309V338.102C488.856 340.038 488.348 341.94 487.383 343.618C486.419 345.296 485.03 346.692 483.357 347.665L253.365 481.215C252.508 481.708 251.536 481.968 250.547 481.969ZM13.3173 327.228L13.6071 336.972C13.6071 347.636 17.273 350.476 23.3151 353.881L248.156 480.607C248.892 481.027 249.725 481.247 250.572 481.247C251.42 481.247 252.252 481.027 252.988 480.607L482.995 347.006C484.555 346.096 485.849 344.793 486.749 343.227C487.649 341.661 488.123 339.887 488.124 338.081V322.033L13.3173 327.228Z" fill="#311D69"/>
<path d="M19.2238 315.478L247.868 183.464C249.778 182.362 251.944 181.782 254.149 181.782C256.355 181.782 258.521 182.362 260.431 183.464L482.214 311.377C484.117 312.483 485.695 314.068 486.792 315.975C487.89 317.882 488.467 320.044 488.467 322.244C488.467 324.444 487.89 326.606 486.792 328.513C485.695 330.42 484.117 332.006 482.214 333.111L256.801 464.031C254.908 465.131 252.76 465.717 250.57 465.731C248.381 465.745 246.226 465.187 244.318 464.111L19.3397 337.306C17.4077 336.218 15.7979 334.639 14.6738 332.728C13.5497 330.817 12.9514 328.643 12.9396 326.425C12.9279 324.208 13.503 322.028 14.6068 320.105C15.7105 318.182 17.3034 316.586 19.2238 315.478Z" fill="#B5A0F0"/>
<path d="M250.487 466.096C248.262 466.1 246.073 465.528 244.134 464.437L19.1478 337.632C17.1656 336.508 15.515 334.882 14.3629 332.916C13.2108 330.95 12.5979 328.715 12.5861 326.436C12.5743 324.158 13.1642 321.917 14.2959 319.939C15.4277 317.961 17.0614 316.317 19.0319 315.173L247.684 183.145C249.65 182.013 251.88 181.417 254.15 181.417C256.419 181.417 258.649 182.013 260.615 183.145L482.392 311.058C484.358 312.191 485.992 313.82 487.13 315.784C488.267 317.747 488.868 319.976 488.871 322.245C488.875 324.514 488.282 326.744 487.151 328.711C486.02 330.678 484.391 332.313 482.428 333.452L256.986 464.372C255.009 465.508 252.767 466.103 250.487 466.096ZM19.4014 315.796C17.5384 316.873 15.9935 318.424 14.9232 320.29C13.8529 322.157 13.2954 324.274 13.3071 326.426C13.3189 328.577 13.8996 330.688 14.9902 332.543C16.0809 334.397 17.6427 335.931 19.5173 336.987L244.503 463.771C246.355 464.81 248.446 465.35 250.57 465.336C252.694 465.322 254.778 464.755 256.616 463.691L482.059 332.814C483.91 331.744 485.448 330.205 486.517 328.352C487.586 326.499 488.149 324.398 488.149 322.259C488.149 320.12 487.586 318.018 486.517 316.166C485.448 314.313 483.91 312.774 482.059 311.703L260.246 183.782C258.391 182.717 256.289 182.156 254.15 182.156C252.01 182.156 249.908 182.717 248.053 183.782L19.4014 315.796Z" fill="#311D69"/>
<g opacity="0.19">
<path d="M376.858 315.434L282.51 371.798C282.114 372.034 281.788 372.37 281.563 372.772C281.339 373.174 281.224 373.628 281.231 374.088C281.237 374.549 281.365 374.999 281.601 375.395C281.837 375.79 282.173 376.116 282.575 376.341L292.826 382.137C293.714 382.634 294.716 382.89 295.734 382.877C296.751 382.864 297.747 382.584 298.622 382.064L392.84 325.975C393.235 325.744 393.563 325.413 393.791 325.016C394.019 324.619 394.139 324.169 394.139 323.711C394.139 323.253 394.019 322.803 393.791 322.406C393.563 322.009 393.235 321.678 392.84 321.447L382.357 315.42C381.524 314.925 380.574 314.666 379.606 314.668C378.637 314.671 377.688 314.935 376.858 315.434Z" fill="#5D4896"/>
</g>
<g opacity="0.19">
<path d="M217.528 252.55L150.97 289.556C150.855 289.618 150.759 289.71 150.692 289.822C150.625 289.934 150.59 290.063 150.59 290.193C150.59 290.324 150.625 290.452 150.692 290.565C150.759 290.677 150.855 290.769 150.97 290.831L152.455 291.621C152.566 291.684 152.69 291.718 152.818 291.718C152.945 291.718 153.07 291.684 153.18 291.621L219.832 254.788C219.943 254.725 220.036 254.633 220.1 254.523C220.165 254.412 220.199 254.286 220.199 254.158C220.199 254.03 220.165 253.904 220.1 253.793C220.036 253.683 219.943 253.591 219.832 253.528L218.252 252.571C218.144 252.504 218.02 252.467 217.893 252.463C217.766 252.46 217.64 252.489 217.528 252.55Z" fill="#5D4896"/>
</g>
<path d="M386.666 12.0812C384.428 9.47901 381.366 7.72185 377.99 7.10231C374.614 6.48277 371.128 7.03822 368.112 8.67619L271.032 61.389C268.804 62.6244 266.941 64.4255 265.631 66.6108C264.321 68.796 263.61 71.288 263.57 73.8355L262.121 337.479C262.113 338.702 262.506 339.893 263.24 340.871C263.975 341.849 265.009 342.558 266.186 342.891L276.096 345.702L387.905 13.5229L386.666 12.0812Z" fill="#5D4896"/>
<path d="M276.372 346.151L266.12 343.253C264.862 342.895 263.755 342.135 262.97 341.088C262.185 340.041 261.765 338.766 261.774 337.458L263.223 73.8137C263.269 71.2026 264.001 68.6495 265.343 66.4094C266.686 64.1694 268.592 62.3208 270.873 61.0485L367.953 8.32837C371.047 6.66513 374.615 6.10474 378.07 6.73941C381.526 7.37409 384.662 9.16601 386.963 11.8203L388.332 13.4142L388.267 13.617L276.372 346.151ZM375.241 7.22717C372.806 7.22588 370.409 7.83621 368.271 9.00213L271.192 61.715C269.024 62.9293 267.213 64.6923 265.941 66.8273C264.67 68.9623 263.982 71.3942 263.947 73.8789L262.498 337.523C262.49 338.667 262.857 339.782 263.543 340.697C264.228 341.613 265.195 342.279 266.294 342.594L275.865 345.311L387.485 13.6026L386.383 12.2985C385.001 10.701 383.289 9.42095 381.366 8.5457C379.443 7.67046 377.354 7.22071 375.241 7.22717Z" fill="#311D69"/>
<path d="M273.476 80.8628L272.027 341.529C272.022 342.259 272.209 342.978 272.57 343.613C272.931 344.248 273.454 344.775 274.085 345.143C274.716 345.511 275.433 345.705 276.163 345.707C276.893 345.708 277.611 345.517 278.243 345.151L386.031 282.926C387.006 282.396 387.82 281.613 388.387 280.659C388.954 279.706 389.254 278.617 389.255 277.507V17.3698C389.256 16.4403 389.014 15.5266 388.553 14.7194C388.093 13.9122 387.429 13.2395 386.628 12.7679C385.827 12.2964 384.916 12.0425 383.987 12.0313C383.057 12.0201 382.141 12.2521 381.329 12.7042L280.917 68.4163C278.693 69.6545 276.834 71.4569 275.528 73.6419C274.221 75.8269 273.514 78.3175 273.476 80.8628Z" fill="#B5A0F0"/>
<path d="M276.188 346.079C275.39 346.076 274.608 345.861 273.92 345.456C273.229 345.062 272.656 344.49 272.261 343.8C271.866 343.109 271.663 342.325 271.674 341.53L273.123 80.856C273.164 78.2453 273.891 75.6913 275.23 73.4497C276.569 71.2081 278.473 69.3576 280.752 68.0835L381.171 12.3786C382.04 11.8964 383.019 11.6495 384.012 11.6623C385.006 11.6751 385.978 11.9472 386.834 12.4516C387.69 12.9559 388.399 13.6751 388.891 14.5378C389.383 15.4005 389.642 16.3769 389.641 17.3702V277.5C389.642 278.677 389.325 279.833 388.723 280.845C388.121 281.856 387.257 282.686 386.221 283.245L278.434 345.463C277.751 345.86 276.977 346.072 276.188 346.079ZM273.84 80.8632L272.391 341.53C272.386 342.195 272.557 342.85 272.887 343.428C273.216 344.006 273.692 344.487 274.268 344.822C274.843 345.156 275.496 345.333 276.162 345.334C276.827 345.335 277.481 345.159 278.057 344.826L385.859 282.601C386.775 282.106 387.54 281.375 388.076 280.482C388.611 279.59 388.896 278.57 388.902 277.529V17.3702C388.903 16.5049 388.679 15.6542 388.25 14.9025C387.822 14.1508 387.204 13.5242 386.459 13.0848C385.713 12.6455 384.866 12.4086 384.001 12.3979C383.136 12.3871 382.283 12.6027 381.526 13.0233L281.107 68.7428C278.945 69.9528 277.138 71.7089 275.866 73.8358C274.595 75.9626 273.904 78.3858 273.862 80.8632H273.84Z" fill="#311D69"/>
<path d="M378 53.8622V262.33C378.005 263.197 377.778 264.049 377.342 264.798C376.907 265.547 376.278 266.166 375.523 266.59L290.65 313.753C289.908 314.167 289.071 314.379 288.221 314.367C287.372 314.356 286.54 314.121 285.81 313.686C285.08 313.252 284.477 312.633 284.061 311.892C283.645 311.151 283.432 310.314 283.442 309.464L285.688 97.9392C285.699 97.0703 285.942 96.2201 286.393 95.4772C286.844 94.7344 287.486 94.1261 288.252 93.7156L370.864 49.5878C371.603 49.1941 372.431 48.9983 373.268 49.0194C374.105 49.0404 374.922 49.2775 375.641 49.7077C376.359 50.1379 376.953 50.7465 377.367 51.4745C377.78 52.2024 377.999 53.025 378 53.8622Z" fill="#3F2B78"/>
<g opacity="0.19">
<path d="M309.418 63.9683V67.1633C309.42 67.4377 309.493 67.7069 309.63 67.9447C309.767 68.1826 309.963 68.3811 310.199 68.521C310.435 68.6609 310.704 68.7374 310.978 68.7433C311.252 68.7491 311.523 68.684 311.765 68.5543L341.903 51.616C342.15 51.4771 342.355 51.275 342.498 51.0305C342.64 50.7861 342.715 50.5081 342.715 50.225V46.6027C342.715 46.3226 342.642 46.0473 342.503 45.8045C342.363 45.5618 342.162 45.3601 341.919 45.2198C341.677 45.0795 341.402 45.0055 341.122 45.0054C340.842 45.0052 340.567 45.0789 340.324 45.2189L310.215 62.6063C309.975 62.7446 309.776 62.943 309.636 63.1818C309.496 63.4206 309.421 63.6917 309.418 63.9683Z" fill="#5D4896"/>
</g>
<path d="M142.238 277.196V149.442C142.238 148.825 142.405 148.218 142.722 147.688C143.038 147.157 143.492 146.722 144.035 146.428L211.846 109.763C212.544 109.387 213.345 109.248 214.129 109.367C214.913 109.485 215.638 109.856 216.193 110.422L217.497 111.741L146.745 279.355L144.165 279.225C143.645 279.2 143.153 278.976 142.794 278.598C142.435 278.22 142.236 277.718 142.238 277.196Z" fill="#5D4896"/>
<path d="M146.984 279.739L144.144 279.594C143.53 279.563 142.951 279.296 142.527 278.85C142.104 278.403 141.868 277.811 141.869 277.196V149.442C141.868 148.757 142.053 148.085 142.404 147.497C142.755 146.909 143.259 146.427 143.861 146.102L211.665 109.437C212.439 109.023 213.326 108.87 214.194 109.001C215.062 109.131 215.865 109.538 216.483 110.161L217.932 111.661L217.838 111.885L146.984 279.739ZM213.585 109.69C213.038 109.69 212.5 109.827 212.02 110.089L144.209 146.754C143.725 147.017 143.321 147.405 143.039 147.878C142.757 148.351 142.608 148.892 142.608 149.442V277.196C142.609 277.622 142.774 278.032 143.068 278.34C143.361 278.649 143.762 278.833 144.187 278.855L146.506 278.978L217.084 111.827L215.954 110.675C215.644 110.363 215.275 110.115 214.868 109.946C214.461 109.777 214.025 109.69 213.585 109.69Z" fill="#311D69"/>
<path d="M144.328 150.412V277.232C144.338 277.6 144.44 277.961 144.627 278.279C144.813 278.597 145.078 278.862 145.395 279.05C145.712 279.237 146.072 279.341 146.441 279.351C146.809 279.362 147.174 279.278 147.502 279.108L216.783 240.842C217.117 240.654 217.395 240.382 217.59 240.052C217.784 239.723 217.889 239.348 217.892 238.965V112.95C217.883 112.583 217.781 112.224 217.596 111.907C217.41 111.59 217.148 111.325 216.832 111.136C216.517 110.948 216.159 110.843 215.792 110.831C215.425 110.819 215.06 110.9 214.733 111.066L145.451 148.5C145.106 148.684 144.818 148.96 144.62 149.298C144.422 149.635 144.321 150.021 144.328 150.412Z" fill="#FFFAE1"/>
<path d="M146.466 279.746C146.018 279.745 145.578 279.625 145.191 279.398C144.812 279.177 144.498 278.859 144.282 278.478C144.066 278.096 143.954 277.664 143.959 277.225V150.442C143.964 149.995 144.088 149.558 144.318 149.176C144.549 148.794 144.878 148.481 145.27 148.268L214.559 110.806C214.942 110.598 215.371 110.494 215.806 110.503C216.241 110.512 216.666 110.634 217.039 110.857C217.413 111.079 217.722 111.396 217.936 111.774C218.15 112.153 218.262 112.58 218.261 113.015V238.965C218.255 239.41 218.132 239.845 217.904 240.226C217.677 240.608 217.353 240.922 216.965 241.139L147.683 279.406C147.313 279.621 146.894 279.738 146.466 279.746ZM215.747 111.175C215.454 111.177 215.165 111.252 214.907 111.393L145.625 148.855C145.344 149.006 145.109 149.231 144.946 149.505C144.783 149.78 144.697 150.093 144.698 150.413V277.232C144.698 277.54 144.777 277.843 144.93 278.11C145.082 278.377 145.301 278.6 145.566 278.757C145.831 278.914 146.132 278.998 146.44 279.003C146.748 279.007 147.051 278.931 147.321 278.783L216.602 240.509C216.88 240.356 217.112 240.132 217.274 239.859C217.436 239.586 217.521 239.275 217.522 238.958V112.95C217.519 112.481 217.33 112.031 216.998 111.699C216.666 111.367 216.217 111.179 215.747 111.175Z" fill="#311D69"/>
<g opacity="0.73">
<path d="M208.487 189.303V234.858C208.487 235.189 208.397 235.513 208.226 235.797C208.055 236.08 207.81 236.312 207.517 236.466L185.913 247.819C185.636 247.963 185.327 248.033 185.015 248.023C184.703 248.014 184.398 247.923 184.131 247.762C183.864 247.6 183.643 247.373 183.489 247.101C183.336 246.829 183.255 246.522 183.254 246.21V200.836C183.251 200.34 183.384 199.852 183.64 199.427C183.895 199.001 184.263 198.654 184.703 198.424L205.821 187.687C206.099 187.539 206.41 187.465 206.725 187.473C207.039 187.482 207.346 187.572 207.615 187.735C207.884 187.898 208.106 188.128 208.259 188.403C208.412 188.678 208.491 188.988 208.487 189.303Z" fill="#5D4896"/>
</g>
<path d="M167.503 211.233H164.547V210.965C164.535 204.106 166.4 197.375 169.94 191.501C173.48 185.626 178.56 180.833 184.629 177.639L186.006 180.254C180.415 183.198 175.736 187.615 172.474 193.026C169.213 198.438 167.494 204.639 167.503 210.957V211.233Z" fill="#311D69"/>
<path d="M175.389 210.718H172.434V210.522C172.428 205.334 173.843 200.243 176.525 195.801C179.207 191.359 183.053 187.736 187.648 185.325L189.031 187.94C184.918 190.104 181.475 193.352 179.076 197.333C176.676 201.313 175.411 205.875 175.418 210.522L175.389 210.718Z" fill="#311D69"/>
<path d="M291.818 160.389L369.496 117.347C369.752 117.206 370.039 117.134 370.331 117.137C370.623 117.139 370.909 117.217 371.162 117.363C371.414 117.509 371.625 117.717 371.774 117.968C371.923 118.219 372.004 118.505 372.01 118.796V211.167C372.009 211.474 371.925 211.775 371.767 212.037C371.609 212.3 371.382 212.515 371.112 212.659L292.202 254.599C291.942 254.736 291.652 254.803 291.359 254.794C291.066 254.785 290.78 254.699 290.53 254.547C290.28 254.394 290.073 254.18 289.931 253.923C289.788 253.667 289.714 253.378 289.717 253.085L290.927 161.801C290.939 161.509 291.028 161.224 291.184 160.976C291.341 160.729 291.559 160.526 291.818 160.389Z" fill="#FFFAE1"/>
<g opacity="0.19">
<path d="M295.42 232.539V245.066C295.42 245.411 295.509 245.75 295.678 246.05C295.847 246.351 296.091 246.603 296.385 246.783C296.68 246.963 297.016 247.064 297.36 247.076C297.705 247.089 298.047 247.013 298.354 246.855L329.036 231.09C329.366 230.921 329.643 230.663 329.836 230.346C330.029 230.029 330.131 229.665 330.13 229.294V216.978C330.129 216.636 330.042 216.301 329.876 216.002C329.71 215.704 329.47 215.453 329.18 215.273C328.89 215.094 328.559 214.991 328.218 214.975C327.877 214.958 327.538 215.029 327.232 215.181L296.55 230.714C296.209 230.88 295.921 231.14 295.721 231.463C295.522 231.786 295.417 232.159 295.42 232.539Z" fill="#5D4896"/>
</g>
<g opacity="0.73">
<path d="M332.918 213.536V225.736C332.922 226.104 333.02 226.465 333.202 226.785C333.384 227.106 333.644 227.374 333.959 227.566C334.273 227.758 334.631 227.867 334.999 227.883C335.367 227.898 335.733 227.82 336.062 227.656L366.49 212.029C366.84 211.839 367.131 211.557 367.332 211.214C367.532 210.87 367.635 210.478 367.628 210.08V198.104C367.623 197.738 367.526 197.378 367.346 197.058C367.165 196.739 366.906 196.471 366.594 196.278C366.281 196.086 365.925 195.976 365.559 195.958C365.192 195.94 364.827 196.016 364.498 196.177L334.07 211.609C333.721 211.795 333.429 212.072 333.226 212.412C333.023 212.752 332.916 213.14 332.918 213.536Z" fill="#5D4896"/>
</g>
<g opacity="0.19">
<path d="M316.014 167.511V172.235C316.013 172.48 316.077 172.722 316.201 172.935C316.324 173.147 316.502 173.323 316.716 173.444C316.93 173.565 317.173 173.627 317.418 173.623C317.664 173.619 317.904 173.55 318.115 173.423L363.235 146.327C363.439 146.204 363.608 146.029 363.725 145.821C363.841 145.613 363.902 145.378 363.902 145.139V140.169C363.902 139.923 363.838 139.682 363.714 139.469C363.591 139.257 363.413 139.081 363.199 138.96C362.985 138.839 362.743 138.777 362.497 138.781C362.251 138.785 362.011 138.854 361.801 138.981L316.68 166.323C316.477 166.448 316.309 166.622 316.192 166.83C316.076 167.038 316.014 167.273 316.014 167.511Z" fill="#5D4896"/>
</g>
<g opacity="0.19">
<path d="M357.164 168.677L298.481 201.278C298.222 201.42 298.007 201.63 297.859 201.885C297.71 202.141 297.635 202.432 297.641 202.727V205.234C297.638 205.518 297.709 205.799 297.848 206.047C297.986 206.296 298.188 206.504 298.432 206.65C298.676 206.797 298.954 206.877 299.238 206.883C299.523 206.888 299.804 206.819 300.053 206.683L358.649 174.581C358.9 174.446 359.111 174.246 359.261 174.004C359.411 173.761 359.495 173.483 359.504 173.197L359.584 170.169C359.596 169.88 359.53 169.593 359.394 169.337C359.258 169.081 359.057 168.867 358.811 168.715C358.564 168.563 358.282 168.479 357.992 168.472C357.703 168.466 357.417 168.536 357.164 168.677Z" fill="#5D4896"/>
</g>
<g opacity="0.19">
<path d="M357.926 180.174L298.208 213.333C298.03 213.433 297.883 213.578 297.78 213.754C297.676 213.93 297.622 214.129 297.621 214.333V217.955C297.622 218.153 297.675 218.347 297.773 218.518C297.872 218.689 298.012 218.832 298.182 218.933C298.352 219.033 298.545 219.088 298.743 219.092C298.94 219.096 299.135 219.049 299.309 218.955L358.912 186.354C359.087 186.26 359.234 186.122 359.337 185.952C359.44 185.783 359.496 185.589 359.499 185.39L359.622 181.217C359.629 181.015 359.582 180.815 359.487 180.636C359.391 180.458 359.25 180.308 359.078 180.202C358.905 180.096 358.708 180.038 358.506 180.033C358.304 180.028 358.104 180.077 357.926 180.174Z" fill="#5D4896"/>
</g>
<path d="M64.0287 223.121C53.1616 223.121 42.2293 217.716 36.2886 208.631C29.6089 198.38 29.6524 185.622 30.8622 176.754C31.7678 170.118 33.3544 165.163 35.8539 161.135C39.0923 155.948 44.1129 152.441 49.2929 151.717C56.0233 150.673 63.5578 154.296 69.4333 161.374C71.7556 164.296 73.8945 167.359 75.8377 170.546C77.7785 173.733 79.9226 176.792 82.2565 179.703C83.7074 181.435 85.3669 182.98 87.1975 184.304C87.1975 183.239 87.1975 182.166 87.1975 181.109V178.624C87.1872 151.241 90.3083 123.946 96.4997 97.2723C98.1805 90.0275 101.057 81.3338 108.403 78.3562C115.988 75.2844 123.921 79.9283 127.964 82.9711C128.739 83.558 129.5 84.1593 130.239 84.7823C135.788 81.3338 142.844 80.7615 149.198 80.5224C160.464 80.1022 172.997 80.8412 180.394 89.4697C184.973 94.8163 186.914 102.699 186.132 112.906C185.929 115.601 185.581 118.304 185.241 120.926C184.806 124.288 184.357 127.765 184.219 131.192C184.219 131.634 184.219 132.098 184.219 132.554C184.284 134.409 184.393 137.22 181.198 137.626C179.394 137.872 176.801 136.401 174.91 135.336C174.555 135.133 174.236 134.952 173.968 134.815C164.282 129.743 157.022 121.05 151.784 114.029C150.169 111.856 148.568 109.646 147.025 107.509C141.91 100.388 136.643 93.0196 130.072 87.2238C129.538 87.6189 129.03 88.0472 128.551 88.5061C122.03 94.7149 122.03 105.169 122.03 114.377V115.254C122.046 134.934 119.088 154.503 113.257 173.299C111.322 179.515 108.526 186.223 102.39 188.897C98.0429 190.788 93.341 190.005 89.1028 187.803C89.0987 192.501 88.6132 197.186 87.6539 201.785C86.4802 206.856 83.2563 216.166 74.8596 221.129L74.7075 221.201C71.2917 222.476 67.6746 223.126 64.0287 223.121ZM51.4373 153.419C50.812 153.419 50.1874 153.462 49.5682 153.55C44.9605 154.202 40.4615 157.396 37.5274 162.091C35.1801 165.866 33.6804 170.582 32.8183 176.936C31.6519 185.499 31.594 197.764 37.9114 207.501C45.3445 218.904 61.1381 224.113 73.9033 219.383C81.6045 214.789 84.6038 206.11 85.705 201.343C86.7046 196.515 87.1903 191.595 87.154 186.665C84.7371 185.099 82.5685 183.18 80.7206 180.971C78.327 177.999 76.1319 174.872 74.1496 171.611C72.2472 168.493 70.1543 165.495 67.8829 162.634C63.0362 156.759 57.0013 153.419 51.4373 153.419ZM89.168 185.586C93.1454 187.89 97.6154 188.853 101.636 187.085C107.005 184.738 109.605 178.5 111.373 172.719C117.145 154.123 120.075 134.761 120.067 115.29V114.45C120.067 104.836 120.067 93.9397 127.188 87.1513C127.623 86.7384 128.072 86.3472 128.536 85.9849C127.956 85.5068 127.362 85.0431 126.754 84.5867C123.762 82.3408 116.039 77.4144 109.106 80.2399C102.636 82.8625 100.057 90.5781 98.3834 97.7794C92.2271 124.304 89.1231 151.445 89.1318 178.674V181.101C89.168 182.587 89.1753 184.079 89.168 185.586ZM131.811 86.1443C138.331 92.0271 143.569 99.3008 148.647 106.372C150.191 108.545 151.784 110.719 153.386 112.892C158.5 119.724 165.571 128.193 174.91 133.112L175.895 133.663C177.264 134.431 179.8 135.836 180.966 135.713C182.133 135.59 182.365 134.945 182.278 132.634C182.278 132.134 182.278 131.62 182.278 131.127C182.415 127.613 182.872 124.092 183.314 120.687C183.647 118.094 183.995 115.413 184.197 112.776C184.922 103.104 183.154 95.7002 178.923 90.7737C172.07 82.8045 160.087 82.08 149.307 82.5075C143.395 82.7103 136.896 83.2247 131.811 86.1443Z" fill="#3F2B78"/>
</g>
<defs>
<clipPath id="clip0_750_40487">
<rect width="476.314" height="475.466" fill="white" transform="translate(12.5566 6.5033)"/>
</clipPath>
</defs>
</svg>
